<?xml version="1.0" standalone="no"?>
<!DOCTYPE svg PUBLIC "-//W3C//DTD SVG 1.1//EN" "http://www.w3.org/Graphics/SVG/1.1/DTD/svg11.dtd">
<svg xmlns="http://www.w3.org/2000/svg">
<metadata>Copyright (C) 2016 by original authors @ fontello.com</metadata>
<defs>
<font id="office365icons" horiz-adv-x="1000" >
<font-face font-family="office365icons" font-weight="400" font-stretch="normal" units-per-em="1000" ascent="850" descent="-150" />
<missing-glyph horiz-adv-x="1000" />
<glyph glyph-name="space" unicode="&#x20;" d="m250 350" horiz-adv-x="500" />
<glyph glyph-name="circleEmpty" unicode="&#xe000;" d="m500 759c225 0 409-184 409-409 0-225-184-409-409-409-225 0-409 184-409 409 0 225 184 409 409 409m0 48c-252 0-457-205-457-457 0-252 205-457 457-457 252 0 457 205 457 457 0 252-205 457-457 457l0 0z" horiz-adv-x="1000" />
<glyph glyph-name="circleFill" unicode="&#xe001;" d="m500 807c-252 0-457-205-457-457 0-252 205-457 457-457 252 0 457 205 457 457 0 252-205 457-457 457l0 0z" horiz-adv-x="1000" />
<glyph glyph-name="placeholder" unicode="&#xe002;" d="m75 775v-850h850v850h-850z m363-425l-286-287v573l286-286z m-226 349h575l-287-288-288 288z m288-411l286-286h-573l287 286z m61 62l288 287v-575l-288 288z" horiz-adv-x="1000" />
<glyph glyph-name="star" unicode="&#xe003;" d="m661 255l102-310-264 191-263-191 101 310-262 190h323l101 310 102-310h324l-264-190z" horiz-adv-x="1000" />
<glyph glyph-name="plus" unicode="&#xe004;" d="m925 275h-350v-350h-150v350h-350v150h350v350h150v-350h350v-150z" horiz-adv-x="1000" />
<glyph glyph-name="minus" unicode="&#xe005;" d="m925 275h-850v150h850v-150z" horiz-adv-x="1000" />
<glyph glyph-name="question" unicode="&#xe006;" d="m236 604c41 103 135 166 244 171 106 4 224-28 279-126 54-97 22-215-60-284-40-32-93-57-115-107-12-26-10-53-10-81h-156v53c4 47 17 92 47 130 33 40 80 64 112 103 67 81 4 198-102 174-43-10-73-48-84-89-1-6-8-58-6-58-2 0-170 0-170 0 1 39 9 77 21 114z m355-588c0-50-41-91-91-91s-92 41-92 91c0 51 41 92 92 92s91-41 91-92z" horiz-adv-x="1000" />
<glyph glyph-name="exclamation" unicode="&#xe007;" d="m596 774l-22-574h-149l-22 574h193z m-5-759c0-50-41-91-91-91-51 0-92 41-92 91 0 51 41 92 92 92 50 0 91-41 91-92z" horiz-adv-x="1000" />
<glyph glyph-name="person" unicode="&#xe008;" d="m142-75c9 95 15 190 37 283 19 79 80 130 160 139 20 2 35-8 49-19 33-27 68-49 111-56 61-11 115 9 160 48 34 29 64 28 103 15 70-25 109-71 122-144 15-88 24-177 32-266-258 0-516 0-774 0z m519 772c-85 115-250 100-307-28-40-87-28-172 30-247 54-70 147-93 220-55 73 38 100 105 104 168 0 70-16 120-47 162z" horiz-adv-x="1000" />
<glyph glyph-name="mail" unicode="&#xe009;" d="m925 540v-450c0-11-4-20-11-29-8-8-17-12-28-12h-771c-10 0-19 4-27 12-9 9-13 18-13 29v441l395-279c3-3 7-6 11-7 4-1 9-2 13-2 5 0 9 1 13 2 4 1 8 4 11 7l407 288z m-841 92c8 11 18 17 31 17h771c4 0 9-1 14-3 5-3 9-6 12-9l-417-297-411 292z" horiz-adv-x="1000" />
<glyph glyph-name="infoCircle" unicode="&#xe00a;" d="m500 775c-235 0-425-190-425-425 0-235 190-425 425-425 235 0 425 190 425 425 0 235-190 425-425 425z m65-741h-131v424h131v-424z m-65 479c-42 0-76 34-76 77 0 42 34 76 76 76s76-34 76-76c0-43-34-77-76-77z" horiz-adv-x="1000" />
<glyph glyph-name="alert" unicode="&#xe00b;" d="m913 125l-3 5-322 559-3 4c-17 29-49 48-85 48-36 0-68-19-85-48l-3-4-325-564 0 0c-8-14-12-30-12-47 0-55 45-100 100-100h650c56 0 100 45 100 100 0 17-4 33-12 46z m-357 434l-13-337h-87l-13 337h113z m-11-481c-11-11-26-17-45-17-18 0-33 6-45 17-12 12-17 25-17 40 0 17 6 31 18 40 12 11 26 16 44 16 18 0 33-5 45-16 12-10 18-24 18-40 0-16-6-29-18-40z" horiz-adv-x="1000" />
<glyph glyph-name="xCircle" unicode="&#xe00c;" d="m500 775c-235 0-425-190-425-425 0-235 190-425 425-425 235 0 425 190 425 425 0 235-190 425-425 425z m270-608l-87-87-183 182-183-182-87 87 183 183-183 183 87 86 183-182 183 183 87-87-182-184 182-182z" horiz-adv-x="1000" />
<glyph glyph-name="mailOpen" unicode="&#xe00d;" d="m533 754c-8 5-15 8-23 8-10 0-19-3-27-8l-408-312v-482c0 0 0 0 0 0 1-12 12-22 25-22h800c13 0 25 9 25 21v483l-392 312z m-33-634l-333 264 333 263 333-264-333-263z" horiz-adv-x="1000" />
<glyph glyph-name="people" unicode="&#xe00e;" d="m75-65c3 37 7 74 10 111 4 37 10 73 19 109 7 31 22 56 44 75 22 19 49 30 81 33h4c7 0 13-1 18-3 5-3 10-7 15-11 13-11 26-20 40-28 14-8 30-13 47-16 8-1 16-2 24-2 19 0 37 3 54 10 17 7 32 17 46 29 8 7 16 12 24 15 7 3 15 4 23 4 5 0 11 0 16-2 6-1 12-3 18-5 27-10 49-23 64-42 15-18 25-42 30-70 6-35 11-69 15-104 4-34 8-68 11-103h-603z m403 601c13-17 22-35 29-55 6-20 9-44 9-71-1-13-3-25-6-37-3-13-8-24-15-36-6-11-14-22-24-32-10-10-23-18-37-26-18-9-38-14-59-14-20 0-41 5-61 14-19 10-36 24-51 42-28 37-42 75-42 114 0 27 6 53 19 79 12 28 29 48 51 62 23 14 47 21 72 21 21 0 42-5 63-15 20-10 37-26 52-46z m628-193c8-36 15-72 19-108 4-36 7-73 10-112h-426c-1 5-1 9-2 14-1 4-1 9-2 13-7 39-21 71-42 96-22 26-51 45-87 58-7 2-14 4-22 5 1 4 1 7 1 11 1 3 1 7 2 10 5 29 15 52 31 70 15 19 37 32 64 42 13 4 25 7 36 7 15 0 30-6 45-18 14-13 29-23 46-30 16-7 34-10 52-10 9 0 18 1 26 2 17 3 32 9 46 16 14 8 28 17 41 28 4 4 9 8 15 10 5 3 11 5 18 5h4c32-4 59-15 81-34 22-19 37-44 44-75z m-375 381c15 21 33 36 53 46 20 10 41 15 62 15 26 0 50-7 73-21 22-14 40-34 52-62 11-26 17-52 17-78 0-40-14-78-42-114-14-19-30-33-50-42-20-10-41-14-62-14-10 0-20 1-30 3-10 2-19 6-29 11-14 7-26 16-36 26-10 10-18 20-25 31-6 12-11 23-14 36-3 12-5 24-6 37 0 27 3 51 9 71 7 20 16 39 28 55z" horiz-adv-x="1210" />
<glyph glyph-name="bell" unicode="&#xe010;" d="m814 158c9-11 17-22 23-33 6-10 9-20 9-27 0-8-3-14-8-18-6-5-14-7-24-7h-629c-11 0-18 2-23 7-5 4-7 10-7 18 0 7 2 17 8 27 5 11 13 22 22 33 9 10 19 23 28 36 8 12 16 26 24 43 8 16 15 35 21 56 4 16 8 31 11 45 2 14 4 26 6 36 1 12 2 23 2 33 5 94 22 166 51 218 29 51 74 81 135 89-4 5-5 11-5 20 0 5 0 9 2 14 2 4 4 8 7 11 3 4 8 8 14 11 5 3 11 5 18 5 7 0 13-2 19-5 6-3 11-7 15-11 2-3 4-7 6-11 1-4 2-9 2-14 0-8-2-15-5-20 61-8 106-38 136-89 29-52 46-124 50-218 0-10 1-21 3-33 1-10 3-22 5-36 2-14 6-29 10-45 5-21 12-40 21-56 8-17 17-31 24-43 10-14 19-26 29-36z m-440-129h251c-3-15-8-28-15-41-8-13-17-24-28-33-11-9-24-17-38-22-14-5-29-8-44-8-16 0-31 3-45 8-14 5-27 13-38 22-11 9-20 20-28 33-7 13-12 26-15 41z" horiz-adv-x="1000" />
<glyph glyph-name="calendar" unicode="&#xe011;" d="m918 733v-762c0-13-4-24-13-33-8-9-18-13-31-13h-750c-12 0-22 4-31 13-8 9-12 20-12 33v762c0 11 4 21 12 29 9 9 19 13 31 13h750c13 0 23-4 31-13 9-8 13-18 13-29z m-61-159h-717v-595h717v595z m-668-184h101v-104h-101v104z m0-137h101v-106h-101v106z m0-136h101v-106h-101v106z m131 412h99v-108h-99v108z m0-276h99v-106h-99v106z m0-136h99v-106h-99v106z m2 273h100v-104h-100v104z m129 139h99v-108h-99v108z m0-139h99v-104h-99v104z m0-137h99v-106h-99v106z m0-136h99v-106h-99v106z m131 412h99v-108h-99v108z m0-139h99v-104h-99v104z m0-137h99v-106h-99v106z m0-136h99v-106h-99v106z m131 412h100v-108h-100v108z m0-139h100v-104h-100v104z m0-137h100v-106h-100v106z" horiz-adv-x="1000" />
<glyph glyph-name="scheduling" unicode="&#xe012;" d="m238 574c-19 0-34 16-34 35v81c0 20 15 35 34 35 19 0 35-15 35-35v-81c0-19-15-35-35-35z m464 83h-28v-48c0-35-28-63-63-63h-3c-35 0-63 28-63 63v48h-242v-48c0-35-29-63-63-63h-3c-35 0-63 28-63 63v48h-27c-18 0-32-15-32-33v-565c0-18 14-32 32-32h229c-5 18-8 38-9 57h-201v387h517v-78c18-1 35-4 52-9v240c0 18-15 33-33 33z m-91-83c19 0 34 16 34 35v81c0 20-15 35-34 35-19 0-34-15-34-35v-81c-1-19 15-35 34-35z m275-469c0-127-103-230-230-230-127 0-230 103-230 230 0 127 103 230 230 230 127 0 230-104 230-230z m-51 0c0 99-80 179-179 179-99 0-179-80-179-179 0-99 80-179 179-179 99 0 179 80 179 179z m-79-26c14 0 25 12 25 26 0 14-11 25-25 25h-75v93c0 14-11 26-25 26-14 0-26-12-26-26v-118c0-14 12-26 26-26h100z" horiz-adv-x="1000" />
<glyph glyph-name="event" unicode="&#xe013;" d="m231 633v100c0 23 19 42 42 42 23 0 42-19 42-42v-100c0-23-19-41-42-41-23 0-42 18-42 41z m496-41c23 0 42 18 42 41v100c0 23-19 42-42 42-24 0-42-19-42-42v-100c0-23 18-41 42-41z m88-597h-630v471h630v-471z m-544 562c-42 0-76 34-76 76v59h-33c-22 0-40-18-40-40v-688c0-21 18-39 40-39h676c22 0 40 18 40 39v688c0 22-18 40-40 40h-35v-59c0-42-34-76-76-76h-4c-42 0-76 34-76 76v59h-296v-59c0-42-34-76-76-76h-4z" horiz-adv-x="1000" />
<glyph glyph-name="folder" unicode="&#xe014;" d="m925 651v-629h-850v543c0 7 2 13 7 17 4 5 10 7 17 7h427l28 62c3 6 7 13 13 19 5 5 12 8 19 8h306c8 0 15-2 21-8 6-5 10-12 12-19z" horiz-adv-x="1000" />
<glyph glyph-name="documents" unicode="&#xe015;" d="m244 42h-63v733h521v-62h-458v-671z m575-117h-520v733h520v-733z" horiz-adv-x="1000" />
<glyph glyph-name="chat" unicode="&#xe017;" d="m924 703v-621h-430l45-229-314 229h-149v621h848z" horiz-adv-x="1000" />
<glyph glyph-name="sites" unicode="&#xe018;" d="m769 775v-850h-538v850h538z m-54-55h-428l287-106v-536l-283-97h424v739z" horiz-adv-x="1000" />
<glyph glyph-name="listBullets" unicode="&#xe019;" d="m216 609c0-39-32-70-71-70-38 0-70 31-70 70 0 39 32 70 70 70 39 0 71-31 71-70z m-71-189c-38 0-70-31-70-70s32-70 70-70c39 0 71 31 71 70s-32 70-71 70z m0-259c-38 0-70-31-70-70 0-39 32-70 70-70 39 0 71 31 71 70 0 39-32 70-71 70z m662 448c0 29-23 52-52 52h-425c-29 0-52-23-52-52 0-28 23-52 52-52h425c29 0 52 24 52 52z m0-518c0 28-23 52-52 52h-425c-29 0-52-24-52-52 0-29 23-52 52-52h425c29 0 52 23 52 52z m118 259c0 29-23 52-52 52h-543c-29 0-52-23-52-52s23-52 52-52h543c29 0 52 23 52 52z" horiz-adv-x="1000" />
<glyph glyph-name="calendarWeek" unicode="&#xe01a;" d="m918 733v-762c0-13-4-24-13-33-8-9-18-13-31-13h-750c-12 0-22 4-31 13-8 9-12 20-12 33v762c0 11 4 21 12 29 9 9 19 13 31 13h750c13 0 23-4 31-13 9-8 13-18 13-29z m-61-159h-717v-595h717v595z m-668-184h101v-104h-101v104z m133 0h100v-104h-100v104z m129 0h99v-104h-99v104z m131 0h99v-104h-99v104z m131 0h100v-104h-100v104z" horiz-adv-x="1000" />
<glyph glyph-name="calendarWorkWeek" unicode="&#xe01b;" d="m918 733v-762c0-13-4-24-13-33-8-9-18-13-31-13h-750c-12 0-22 4-31 13-8 9-12 20-12 33v762c0 11 4 21 12 29 9 9 19 13 31 13h750c13 0 23-4 31-13 9-8 13-18 13-29z m-61-159h-717v-595h717v595z m-535-184h100v-104h-100v104z m129 0h99v-104h-99v104z m131 0h99v-104h-99v104z" horiz-adv-x="1000" />
<glyph glyph-name="calendarDay" unicode="&#xe01c;" d="m918 733v-762c0-13-4-24-13-33-8-9-18-13-31-13h-750c-12 0-22 4-31 13-8 9-12 20-12 33v762c0 11 4 21 12 29 9 9 19 13 31 13h750c13 0 23-4 31-13 9-8 13-18 13-29z m-61-159h-717v-595h717v595z m-535-184h100v-104h-100v104z" horiz-adv-x="1000" />
<glyph glyph-name="folderMove" unicode="&#xe01d;" d="m913 670c-6 6-13 8-21 8h-306c-7 0-14-3-19-8-6-6-10-13-13-19l-28-62h-427c-7 0-13-2-17-7-5-4-7-10-7-17v-543h850v629c-2 7-6 14-12 19z m-360-537h-108l132 125h-298v85h298l-132 123h109l176-166-177-167z" horiz-adv-x="1000" />
<glyph glyph-name="panel" unicode="&#xe01e;" d="m324 18h-230v664h230v-163h-176v-440h176v-61z m620 664v-664h-557v664h557z m-55-163h-447v-440h447v440z" horiz-adv-x="1000" />
<glyph glyph-name="popout" unicode="&#xe01f;" d="m786 54v-129h-711v658h128v-162h-74v-435h603v68h54z m192 721v-658h-711v658h711z m-53-162h-604v-436h604v436z" horiz-adv-x="1053" />
<glyph glyph-name="menu" unicode="&#xe020;" d="m925 570h-850v100h850v-100z m0-270h-850v100h850v-100z m0-270h-850v100h850v-100z" horiz-adv-x="1000" />
<glyph glyph-name="home" unicode="&#xe021;" d="m801 426v-501h-598v501h-127l425 349 425-349h-125z m-201-432v279h-199v-279h199z" horiz-adv-x="1000" />
<glyph glyph-name="favorites" unicode="&#xe022;" d="m487-1c-7-4-15-6-21-6-42 0-96 67-126 182h136c6 23 14 45 26 66h-175c-5 34-7 71-7 110 0 34 2 67 6 97h280c3-30 6-62 6-97 20 12 42 21 65 27-1 24-2 47-5 70h138c7-23 10-46 12-70 24-7 47-16 68-28 0 0 0 1 0 1 0 234-190 424-424 424-235 0-424-190-424-424 0-234 189-424 424-424 20 0 40 2 60 5-16 20-29 42-39 67z m297 515h-123c-14 67-36 126-64 170 81-32 148-93 187-170z m-318 195c43 0 99-73 128-195h-257c29 122 86 195 129 195z m-131-25c-29-44-51-103-65-170h-123c40 77 106 138 188 170z m-228-333c0 34 5 66 14 97h138c-3-31-5-64-5-97 0-38 2-75 7-110h-136c-11 34-18 71-18 110z m47-176h119c14-62 35-116 62-157-77 30-141 86-181 157z m545-4l50 152 50-152h159l-130-94 50-152-129 93-129-93 49 152-129 94h159z" horiz-adv-x="1000" />
<glyph glyph-name="phone" unicode="&#xe023;" d="m773 15c9-21-1-46-21-55l-37-16c-121-54-254 16-330 145 0 0-46 69-92 171-45 103-52 153-52 153-42 140-10 288 111 342l37 17c20 9 45 0 55-21l68-154c10-21 0-46-21-55l-71-32c-25-11-36-41-25-65l117-262c11-25 40-36 65-25l71 32c21 10 46 0 55-21l70-154" horiz-adv-x="1000" />
<glyph glyph-name="mailSend" unicode="&#xe024;" d="m266 161h-36c-22 0-40 18-40 40 0 22 18 40 40 40h36c22 0 40-18 40-40 0-22-18-40-40-40z m40 357c0 22-18 40-40 40h-151c-22 0-40-18-40-40 0-22 18-40 40-40h151c22 0 40 18 40 40z m0-155c0 22-18 40-40 40h-89c-22 0-40-18-40-40 0-23 18-40 40-40h89c22 0 40 17 40 40z m769 228v-481c0-19-15-35-34-35h-646c-19 0-34 15-34 35v481c0 19 15 34 34 34h646c19 0 34-15 34-34z m-632-35l280-218 279 218h-559z m563-412v328l-261-204c-7-5-14-8-22-8-7 0-15 3-21 8l-272 211v-335h576z" horiz-adv-x="1150" />
<glyph glyph-name="save" unicode="&#xe025;" d="m877 775h-754c-26 0-48-22-48-48v-754c0-26 22-48 48-48h188v243c0 14 11 25 25 25h326c14 0 25-11 25-25v-243h190c26 0 48 21 48 48v754c0 26-22 48-48 48m-114-288c0-14-11-25-25-25h-478c-14 0-25 11-25 25v197c0 14 11 25 25 25h479c13 0 24-11 24-25v-197z m-270-449c14 0 25-11 25-25v-86c0-1 0-1 0-2h-134c0 1 0 1 0 2v86c0 14 11 25 25 25h84" horiz-adv-x="1000" />
<glyph glyph-name="trash" unicode="&#xe026;" d="m831 668c0-25-21-46-46-46 0 0 0 0 0 0l-571 1c-25 0-46 20-46 45 0 26 21 46 46 46l192 0c0 14 0 26 0 32 0 16 12 30 31 30l125-1c17 0 31-13 31-30 0-6 0-18 0-31l192-1c25 0 46-20 46-45z m-48-103v-570c-2-38-35-69-73-69h-421c-38 0-71 31-73 69v570h567z m-408-106c0 17-14 30-30 30l0 0c-17 0-31-13-31-30v-434c0-17 13-30 30-30 17 0 30 13 30 30l1 434z m160 0c0 17-14 30-31 30 0 0 0 0 0 0-17 0-31-13-31-30v-434c0-17 14-30 31-30 16 0 30 13 30 30l1 434z m159 0c0 17-14 30-30 30 0 0 0 0 0 0-17 0-31-13-31-30v-434c0-17 13-30 30-30 17 0 31 13 31 30l0 434z" horiz-adv-x="1000" />
<glyph glyph-name="pencil" unicode="&#xe027;" d="m356 21c-11-12-30-12-41 0l-135 135c-11 11-11 30 0 41l432 432c11 11 30 11 41 0l135-135c11-12 11-30 0-41l-432-432z m538 714c-77 77-153 18-153 18-13-10-32-27-43-38-11-11-11-30 0-41l135-135c12-11 30-11 41 0 11 11 28 30 38 43 0 0 59 76-18 153m-698-786c16 4 19 16 8 27l-69 70c-12 11-24 8-28-8l-23-90c-3-16 6-26 22-22l90 23z" horiz-adv-x="1000" />
<glyph glyph-name="flag" unicode="&#xe028;" d="m328-75c-26 0-48 21-48 48v754c0 26 22 48 48 48 27 0 48-22 48-48v-754c1-27-21-48-48-48m100 806v-476l432 231-432 245z" horiz-adv-x="1000" />
<glyph glyph-name="reply" unicode="&#xe029;" d="m605 577c0 0-1 0-1 0v0l-287-1 177 167-172 0-247-234 247-232 172 0-177 166 287 1v0c0 0 1 0 1 0 103 0 187-84 187-187 0-103-84-187-187-187 0 0 0-133 0-133 177 0 320 143 320 320 0 176-143 320-320 320" horiz-adv-x="1000" />
<glyph glyph-name="miniatures" unicode="&#xe02a;" d="m472 398h-378v377h378v-378z m472-473h-850v379h850v-379z m0 473h-378v377h378v-378z" horiz-adv-x="1000" />
<glyph glyph-name="voicemail" unicode="&#xe02b;" d="m1075 350c0 115-94 209-210 209-115 0-209-94-209-209 0-44 13-83 36-117h-234c23 34 36 73 36 117 0 115-94 209-210 209-115 0-209-94-209-209 0-115 94-209 209-209h593v1c110 5 198 97 198 208l0 0z m-908 0c0 65 53 117 117 117 65 0 118-52 118-117 0-65-53-117-118-117-64 0-117 52-117 117l0 0z m698-117c-64 0-116 52-116 117 0 65 52 117 116 117 65 0 118-52 118-117 0-65-53-117-118-117z" horiz-adv-x="1150" />
<glyph glyph-name="play" unicode="&#xe02c;" d="m232 774l691-424-691-426v850z" horiz-adv-x="1000" />
<glyph glyph-name="pause" unicode="&#xe02d;" d="m239 774h204v-850h-204v850z m319 0h203v-850h-203v850z" horiz-adv-x="1000" />
<glyph glyph-name="onlineAdd" unicode="&#xe02e;" d="m605 0h-102c-1 0-2-1-3-1-1 0-2 1-3 1h-3l-1 1c-40 7-89 72-117 179h81v65h-94c-5 34-8 71-8 110 0 34 2 66 6 96h278c2-20 4-41 5-62h65c-1 21-2 42-5 62h137c9-31 14-63 14-96 0-27-4-52-9-76l0-39h58c10 37 16 75 16 115 0 232-188 420-420 420-232 0-420-188-420-420s188-421 420-421c37 0 72 5 105 14v52z m211 516h-122c-14 67-36 125-64 169 81-32 147-92 186-169z m-316 194c43 0 99-73 127-194h-254c28 122 84 194 127 194z m-130-25c-28-44-50-102-64-169h-122c39 77 106 137 186 169z m-225-330c0 33 5 65 13 96h138c-4-31-6-63-6-96 0-38 3-75 7-110h-135c-11 35-17 71-17 110z m46-175h118c14-61 35-114 61-156-76 30-139 86-179 156z m729-13v-93h-148v-149h-93v149h-148v93h148v148h93l1-148h147z" horiz-adv-x="1000" />
<glyph glyph-name="onlineJoin" unicode="&#xe02f;" d="m746 316c25 0 51-12 68-36 15-19 22-42 22-74-2-29-14-60-48-78-11-5-23-8-35-8-24 0-49 12-66 34-26 34-32 73-14 114 14 32 43 48 73 48m-77-197c-1 0-2 0-2 0-38-4-65-28-74-64-10-43-13-86-17-130 118 0 237 0 356 0-4 41-8 82-15 122-6 34-24 55-56 66-7 3-14 5-21 5-9 0-17-4-26-11-17-15-37-24-59-24-5 0-10 0-15 1-20 4-36 14-51 26-6 5-12 9-20 9m-167-191c-4 0-7-1-10-1-234 0-424 190-424 424 0 234 190 424 424 424 234 0 424-190 424-424 0-33-4-65-11-95-6 25-16 48-31 68-7 10-15 19-24 26 0 1 0 1 0 1 0 34-5 66-14 97h-138c2-21 4-42 5-64-25-7-47-21-65-39 0 2 0 4 0 6 0 35-2 67-6 97h-280c-4-30-6-62-6-97 0-39 3-76 8-110h236c-3-22-1-44 5-66h-228c29-114 83-182 125-182 5 0 11 1 17 3-2-15-4-31-5-46l-2-18 0-4z m121 756c28-44 51-103 65-170h122c-39 77-106 138-187 170z m-259-170h256c-28 122-85 195-128 195-43 0-100-73-128-195z m-191 0h123c14 67 37 126 65 170-81-32-148-93-188-170z m-22-273h137c-5 35-8 72-8 110 0 34 2 66 6 97h-138c-9-31-14-63-14-97 0-38 6-75 17-110z m210-223c-26 42-48 95-62 157h-118c40-71 103-127 180-157z" horiz-adv-x="1000" />
<glyph glyph-name="replyAll" unicode="&#xe030;" d="m850 396c0-119-84-218-197-242-8 37-27 71-53 97 1 0 1 0 1 0 80 0 146 65 146 146 0 80-66 145-146 145 0 0-1 0-1 0v0l-222-1 137-129-134 0-192 181 192 181 134 1-138-131 223 1v0c1 0 1 0 1 0 138 0 249-111 249-249z m-394-105v0l-152 0 98 93-111-1-142-134 145-134 108 0-98 92 148 1c55 0 100-45 100-100 0-55-45-99-100-99h-1-4v-79l-1-5 6 0c101 0 184 82 184 183 0 99-80 181-180 183" horiz-adv-x="1000" />
<glyph glyph-name="attachment" unicode="&#xe031;" d="m671 542c19 0 35-15 35-35v-377c0 0 0-1 0-1-1-113-93-204-206-204-113 0-206 92-206 206v487c0 86 71 157 158 157 86 0 157-71 157-157h0v-383c0-58-47-105-105-105-57 0-104 47-104 105v285c0 20 16 36 35 36 19 0 35-16 35-36v-285c0-19 15-34 34-34 19 0 35 15 35 34v383h-1c0 48-39 87-86 87-48 0-87-39-87-87v-487c0-75 60-135 135-135 75 0 136 60 136 135v376c-1 20 15 35 35 35" horiz-adv-x="1000" />
<glyph glyph-name="drm" unicode="&#xe032;" d="m500 775c-235 0-425-190-425-425 0-235 190-425 425-425 235 0 425 190 425 425 0 235-190 425-425 425z m290-498h-580v146h580v-146z" horiz-adv-x="1000" />
<glyph glyph-name="pinDown" unicode="&#xe033;" d="m620 666l0-262c65-27 111-91 111-166l-191 0c-13-189-26-306-39-312l0-1c0 0-1 0-1 0 0 0-1 0-1 0l0 1c-13 6-26 123-39 312l-191 0c0 75 46 139 111 165l0 263c-33 25-55 64-55 109l350 0c0-45-22-84-55-109z" horiz-adv-x="1000" />
<glyph glyph-name="refresh" unicode="&#xe034;" d="m280 397h-138c44 227 239 341 431 304 65-13 125-43 172-87l0 160 94-89 0-257-257 0-95 92 173 0c-31 28-68 49-111 57-124 24-244-57-269-180z m171-276c-43 8-80 29-111 57l173 0-95 92-257 0 0-257 93-89 1 160c47-44 106-74 172-87 192-37 387 77 431 304h-138c-25-123-145-204-269-180z" horiz-adv-x="1000" />
<glyph glyph-name="gear" unicode="&#xe035;" d="m818 348c0 24-3 48-8 71l96 73-72 123-107-41c-16 17-36 33-57 46l16 118-138 36-46-103c-25 1-50-2-75-8l-71 92-123-72 40-103c-18-17-34-38-48-60l-114 15-36-138 101-45c0-26 3-51 9-76l-91-71 71-123 106 41c15-15 32-29 51-41l-19-116 136-41 50 105c28-1 55 2 81 8l73-95 123 71-42 110c17 16 31 35 44 55l121-16 36 138-107 47z m-223 176c96-53 132-173 79-270-52-96-173-132-269-80-96 53-132 173-80 270 53 96 173 132 270 80m-31-209c-19-36-64-49-99-30-35 20-48 64-29 99 19 36 63 49 99 30 35-20 48-64 29-99" horiz-adv-x="1000" />
<glyph glyph-name="smiley" unicode="&#xe036;" d="m500 775c-235 0-425-190-425-425 0-235 190-425 425-425 235 0 425 190 425 425 0 235-190 425-425 425z m197-212c36 0 64-38 64-86 0-48-28-87-64-87-35 0-63 39-63 87 0 48 28 86 63 86z m-379 0c36 0 64-38 64-86 0-48-28-87-64-87-35 0-63 39-63 87 0 48 28 86 63 86z m193-507c-207 0-264 234-264 234s107-142 264-142 264 142 264 142-57-234-264-234z" horiz-adv-x="1000" />
<glyph glyph-name="info" unicode="&#xe037;" d="m588-75h-177v570h177v-570z m15 747c0 57-46 103-103 103-57 0-103-46-103-103 0-56 46-102 103-102 57-1 103 45 103 102z" horiz-adv-x="1000" />
<glyph glyph-name="lock" unicode="&#xe038;" d="m759 423h-12v104c0 137-111 247-247 247-137 0-248-111-248-247v-104h-11c-27 0-48-22-48-48v-403c0-26 21-48 48-48h518c26 0 47 22 47 48v403c0 26-21 48-47 48z m-259 238c74 0 134-60 134-134v-104h-268v104c0 74 60 134 134 134z m63-604h-126l29 129c-18 11-30 31-30 54 0 17 6 32 17 43 11 13 28 21 47 21 18 0 35-8 47-21 10-11 16-26 16-43 0-23-12-43-30-54l30-129z" horiz-adv-x="1000" />
<glyph glyph-name="search" unicode="&#xe039;" d="m613 774c-174 0-316-142-316-316 0-56 15-109 41-155l-236-239c-31-32-31-83 0-114 16-16 37-23 57-23 21 0 42 8 57 23l235 238c47-29 103-46 162-46 174 0 316 142 316 316 0 174-142 316-316 316z m0-534c-121 0-218 98-218 218 0 121 97 218 218 218 120 0 218-97 218-218 0-120-98-218-218-218z" horiz-adv-x="1000" />
<glyph glyph-name="questionReverse" unicode="&#xe03a;" d="m785 490c0 0-168 0-169 0 1 0-6 52-7 58-11 41-40 79-84 89-105 24-168-93-102-174 33-39 80-63 112-103 31-38 44-83 48-130v-53h-157c0 28 2 55-10 81-22 50-75 75-114 107-82 69-114 187-60 284 54 98 173 130 278 126 109-5 204-68 244-171 13-37 20-75 21-114z m-284-382c50 0 91-41 91-92 0-50-41-91-91-91s-91 41-91 91c0 51 41 92 91 92z" horiz-adv-x="1000" />
<glyph glyph-name="notRecurring" unicode="&#xe03b;" d="m323 668c72 38 155 50 238 34 66-13 125-43 172-87l1 160 93-89 0-257-257 0-95 92 173 0c-31 28-68 49-111 57-40 8-80 5-116-7l-98 97z m381-381l102-101c18 34 32 73 40 116h-138c-1-5-2-10-4-15z m-427 144l-98 99c-23-39-39-83-49-132h138c2 11 5 22 9 33z m295-295c-41-17-87-23-133-14-43 8-80 29-111 57l173 0-95 93-257-1 0-257 94-89 0 160c47-44 107-74 172-87 89-17 178-2 253 42l-96 96z m-396 616l-78-78 725-725 78 78-725 725z" horiz-adv-x="1000" />
<glyph glyph-name="tasks" unicode="&#xe040;" d="m182 417c-7 7-6 19 1 25l72 67c3 3 7 5 12 5 5 0 9-2 13-6l197-212 339 436c3 4 8 7 14 7 4 0 7-2 11-4l77-60c4-3 6-7 7-12 0-5-1-9-4-13l-435-560-304 327z m659 6v-463h-766v768h640l-49-64h-527v-640h638v319l64 80z" horiz-adv-x="1000" />
<glyph glyph-name="check" unicode="&#xe041;" d="m81 353c-8 8-7 21 1 29l82 76c3 3 8 5 13 5 6 0 11-2 15-6l224-242 386 496c3 5 9 8 15 8 5 0 9-1 13-4l88-69c4-3 7-8 7-13 1-5-1-11-4-15l-495-637-345 372z" horiz-adv-x="1000" />
<glyph glyph-name="x" unicode="&#xe042;" d="m875 604l-254-254 254-255-120-120-256 254-253-254-121 120 253 255-253 254 121 121 253-254 256 254 120-121z" horiz-adv-x="1000" />
<glyph glyph-name="thumbDown" unicode="&#xe043;" d="m781 262c-71-9-173-10-173-10s36-59 58-88c22-29 32-85 29-135-3-51-63-59-83 14-12 39-56 118-123 153-115 61-151 157-188 157s-149 0-149 0v303h202c47 62 284 62 359 44 40-10 58-54 77-95 11-23 7-40 15-70 5-20 26-42 28-75 2-15-2-61 0-73 1-12 15-37 16-57 2-53-44-65-68-68z" horiz-adv-x="1000" />
<glyph glyph-name="thumbUp" unicode="&#xe044;" d="m219 438c71 9 173 10 173 10s-36 59-58 88c-22 29-32 85-29 135 4 51 63 59 84-14 11-39 55-118 122-153 116-61 151-157 188-157 36 0 150 0 150 0v-303h-203c-47-62-284-62-359-44-40 10-58 54-77 95-11 23-6 40-15 70-5 20-25 42-28 75-1 15 2 61 1 73-2 12-15 37-16 57-3 53 43 65 67 68z" horiz-adv-x="1000" />
<glyph glyph-name="ellipsis" unicode="&#xe045;" d="m338 350c0-73-58-131-131-131-73 0-132 58-132 131 0 73 59 132 132 132 73 0 131-59 131-132z m287 132c-72 0-131-59-131-132 0-73 59-131 131-131 73 0 132 58 132 131 0 73-59 132-132 132z m419 0c-73 0-132-59-132-132 0-73 59-131 132-131 73 0 131 58 131 131 0 73-58 132-131 132z" horiz-adv-x="1250" />
<glyph glyph-name="dot" unicode="&#xe046;" d="m737 349c0-130-106-236-237-236-130 0-236 106-236 236s106 237 236 237c131 0 237-106 237-237z" horiz-adv-x="1000" />
<glyph glyph-name="arrowUp" unicode="&#xe047;" d="m581 487v-562h-161v562l-234-248v204l314 332 314-333v-204l-233 249z" horiz-adv-x="1000" />
<glyph glyph-name="arrowDown" unicode="&#xe048;" d="m420 212v563h161v-563l233 248v-203l-314-332-314 333v204l234-250z" horiz-adv-x="1000" />
<glyph glyph-name="arrowLeft" unicode="&#xe049;" d="m363 430h562v-161h-562l248-233h-204l-332 314 333 314h204l-249-234z" horiz-adv-x="1000" />
<glyph glyph-name="arrowRight" unicode="&#xe04a;" d="m638 269h-563v161h563l-248 234h203l332-314-333-314h-203l249 233z" horiz-adv-x="1000" />
<glyph glyph-name="download" unicode="&#xe04b;" d="m191-76v117h619v-117h-619z m244 403v447h128v-448l185 198v-162l-249-265-251 266v162l187-199z" horiz-adv-x="1000" />
<glyph glyph-name="directions" unicode="&#xe04c;" d="m517 277v168h-62c-88 0-161-72-161-161v-359h-161v359c0 178 145 322 322 322h62v169l350-249-350-249z" horiz-adv-x="1000" />
<glyph glyph-name="microphone" unicode="&#xe04f;" d="m631 429l-21-231c0-17-7-32-18-43-12-11-27-18-43-18h-98c-17 0-32 7-43 18-11 11-18 26-18 43l-21 231 21 230c0 17 7 32 18 43 11 11 26 18 43 18h98c16 0 32-7 43-18 11-11 18-26 18-43l21-230z m96-8c-18 2-34-11-35-29l-23-238c-2-40-42-76-82-75h-173c-40-1-80 35-83 75l-23 238c-2 18-18 31-36 29-18-1-31-17-29-35l23-238c8-76 72-134 148-135h52v-75h-75c-19 0-34-15-34-34 0-19 15-34 34-34h218c19 0 34 15 34 34 0 19-15 34-34 34h-75v75h53c76 1 140 60 148 135l22 238c2 18-12 34-30 35z" horiz-adv-x="1000" />
<glyph glyph-name="caretUp" unicode="&#xe051;" d="m200 200l300 300 300-300h-600z" horiz-adv-x="1000" />
<glyph glyph-name="caretDown" unicode="&#xe052;" d="m800 500l-300-300-300 300h600z" horiz-adv-x="1000" />
<glyph glyph-name="caretLeft" unicode="&#xe053;" d="m650 50l-300 300 300 300v-600z" horiz-adv-x="1000" />
<glyph glyph-name="caretRight" unicode="&#xe054;" d="m350 650l300-300-300-300v600z" horiz-adv-x="1000" />
<glyph glyph-name="caretUpLeft" unicode="&#xe05a;" d="m288 138l0 424 424 0-424-424z" horiz-adv-x="1000" />
<glyph glyph-name="caretUpRight" unicode="&#xe05b;" d="m288 562l424 0 0-424-424 424z" horiz-adv-x="1000" />
<glyph glyph-name="caretDownRight" unicode="&#xe05c;" d="m712 562l0-424-424 0 424 424z" horiz-adv-x="1000" />
<glyph glyph-name="caretDownLeft" unicode="&#xe05d;" d="m712 138l-424 0 0 424 424-424z" horiz-adv-x="1000" />
<glyph glyph-name="note" unicode="&#xe06a;" d="m924 775v-850h-604l-244 243v607h848z m-80-80h-689v-451h240v-239h449v690z m-513-690v175h-176l176-175z" horiz-adv-x="1000" />
<glyph glyph-name="noteReply" unicode="&#xe06b;" d="m780 774v-452h-65v388h-553v-360h192v-193h76l-68-64h-69l-196 195v486h683z m-477-617v141h-141l141-141z m600-27v-84h-295l130-122h-106l-174 164 174 165h107l-131-123h295z" horiz-adv-x="1000" />
<glyph glyph-name="noteForward" unicode="&#xe06c;" d="m779 774v-452h-64v388h-554v-360h193v-193h34v-64h-95l-196 195v486h682z m-477-617v141h-141l141-141z m449-27l-130 123h106l175-165-174-164h-106l129 122h-294v84h294z" horiz-adv-x="1000" />
<glyph glyph-name="key" unicode="&#xe06f;" d="m500 775c-123 0-222-95-222-213 0-92 62-171 148-200v-135l37-25v-39l-37-25v-37l37-25v-25l-37-26v-25c10-14 59-70 63-72 4-2 8-3 11-3 5 0 10 2 15 8 6 5 59 130 59 130v299c86 29 148 108 148 200 0 118-99 213-222 213z m37-708l-24-49-13 24v307h37v-282z m-37 532c-26 0-48 21-48 48 0 26 22 48 48 48s48-22 48-48c0-27-21-48-48-48z" horiz-adv-x="1000" />
<glyph glyph-name="tile" unicode="&#xe070;" d="m804 412h-729v363h729v-363z m-366-487h-363v365h363v-365z m851 0h-729v365h729v-365z m0 487h-364v363h364v-363z" horiz-adv-x="1363" />
<glyph glyph-name="taskRecurring" unicode="&#xe071;" d="m649 135h-73c23 121 126 181 228 161 35-6 66-22 91-45l0 84 50-47 0-136-136 0-50 49 91 0c-16 15-36 26-58 30-66 13-130-30-143-96z m90-146c-22 4-42 15-59 30l92 0-50 49-136 0 0-136 49-47 0 84c26-23 57-39 92-45 102-20 205 40 228 161h-73c-13-66-77-109-143-96z m-32 418v-42c17 4 34 6 52 7v102l-52-67z m-412 137c-3 3-7 5-11 5-4 0-7-2-10-4l-59-55c-6-6-6-15-1-21l251-271 360 464c3 3 4 6 3 10 0 4-2 8-5 10l-64 50c-3 2-6 3-9 3-5 0-9-2-12-6l-280-361-163 176z m209-434c0 11 0 23 2 34h-328v529h437l40 53h-530v-635h379c0 6 0 12 0 19z" horiz-adv-x="1000" />
<glyph glyph-name="starEmpty" unicode="&#xe073;" d="m661 254l101-310-263 191-263-191 101 310-262 190h323l101 311 102-311h324l-264-190z m-11-155l-58 177 151 109h-185l-59 180-59-180h-184l150-109-58-177 150 109 152-109z" horiz-adv-x="1000" />
<glyph glyph-name="upload" unicode="&#xe076;" d="m191-76v117h619v-117h-619z m370 621v-448h-128v448l-185-198v162l249 265 251-266v-162l-187 199z" horiz-adv-x="1000" />
<glyph glyph-name="wrench" unicode="&#xe077;" d="m916 616l-151-150-117 31-31 118 150 150c-20 6-41 9-63 9-123 0-222-99-222-221 0-20 3-38 7-56l-381-382c-21-20-33-48-33-79 0-61 50-111 111-111 31 0 59 12 79 32l381 382c18-5 38-8 58-8 122 0 221 99 221 222 0 22-3 43-9 63z m-730-624c-24 0-44 20-44 44 0 25 20 45 44 45 25 0 45-20 45-45 0-24-20-44-45-44z" horiz-adv-x="1000" />
<glyph glyph-name="share" unicode="&#xe078;" d="m787 62c6-24 5-51-6-76-27-60-97-87-157-61-60 27-88 97-61 157 27 60 97 87 157 61 4-2 8-4 11-6 55 57 88 134 88 219 0 31-4 61-12 89 30 12 57 31 78 55 17-45 26-93 26-144 0-115-47-219-124-294z m-59 698c-27 0-52-9-72-25-48 20-100 30-154 30-127 0-241-58-316-150 32-7 61-21 87-40 57 60 139 98 229 98 38 0 74-7 108-19-1-4-1-9-1-13 0-66 53-119 119-119 66 0 119 53 119 119 0 66-53 119-119 119z m-267-718c-137 17-247 123-271 258 4 2 8 4 12 6 57 33 76 105 43 162-33 57-105 77-162 44-57-33-77-106-44-163 14-23 34-41 58-50 27-192 186-341 382-352-13 30-19 62-18 95z" horiz-adv-x="1000" />
<glyph glyph-name="documentReply" unicode="&#xe079;" d="m441-8h-273v506h210v211h261v-330h66v396h-420l-184-182v-668h410l-70 67z m-129 717v-145h-144l144 145z m262-631l144-135h-118l-192 181 192 181h117l-143-134h325v-93h-325z" horiz-adv-x="1000" />
<glyph glyph-name="documentForward" unicode="&#xe07a;" d="m534-8h-366v506h211v211h260v-330h66v396h-420l-184-182v-668h362l71 67z m-222 717v-145h-144l144 145z m421-539l-145 135h118l193-182-192-180h-118l144 134h-325v93h325z" horiz-adv-x="1000" />
<glyph glyph-name="partner" unicode="&#xe080;" d="m368 421c-53 69-63 146-28 225 52 116 202 129 278 25 29-38 44-84 44-147-4-57-29-117-95-152-66-35-151-14-199 49z m173-377c-23 33-36 73-36 115 0 51 19 98 51 134-26-10-54-13-84-7-39 6-71 26-101 50-13 11-26 20-44 18-73-8-128-55-145-126-20-84-26-171-34-257 117 0 234 0 351 0l42 73z m313-118l-62 17-16-62-70 121-69-121-17 62-62-17 65 113 9 16c-32 23-53 61-53 104 0 70 57 127 127 127 11 0 21-1 31-4 56-14 96-64 96-123 0-43-21-81-53-104l74-129z" horiz-adv-x="1000" />
<glyph glyph-name="admin" unicode="&#xe081;" d="m502 661c9 0 18 0 27-1l53 97 132-47-25-113c20-15 37-32 53-50l108 31 60-126-100-64c3-23 4-47 2-70l100-55-29-83-370 371c5 37 1 75-11 110z m-203-324c-10-1-21-2-32-2-29 0-58 5-84 15-1-17 0-34 3-51l-96-62 60-126 107 31c14-16 29-31 47-44l-28-113 130-50 58 98c26-3 53-2 79 2l64-100 64 30-372 372z m106 382c51-50 67-122 50-186l442-442 0 0c37-38 37-100 0-138-38-37-100-37-138 0l0 0-442 442c-64-17-135-1-186 50-52 52-67 126-48 192l132-131 103 27 27 103-132 131c66 19 140 4 192-48z m451-669c-16 15-40 15-55 0-16-16-16-40 0-55 15-16 39-16 55 0 15 15 15 39 0 55z" horiz-adv-x="1000" />
<glyph glyph-name="reactivate" unicode="&#xe084;" d="m605 577c0 0-1 0-1 0v0l-287-1 177 167-172 0-247-234 247-232 172 0-177 166 287 1v0c0 0 1 0 1 0 103 0 187-84 187-187 0-103-84-187-187-187 0 0-1 0-530 0v-133c529 0 530 0 530 0 177 0 320 143 320 320 0 176-143 320-320 320" horiz-adv-x="1000" />
<glyph glyph-name="sort" unicode="&#xe085;" d="m292 510l-217-231v188l290 308 290-306v-188l-216 229v-585h-147v585z m804-320l217 231v-188l-291-308-289 307v187l216-229v584h147v-584z" horiz-adv-x="1388" />
<glyph glyph-name="personAdd" unicode="&#xe086;" d="m626 523c-4-57-28-117-95-152-66-34-150-14-199 50-52 69-63 145-27 224 51 116 201 129 278 26 28-39 43-84 43-148z m-208-318h151l0 115c-38-29-83-44-133-35-38 7-71 26-100 51-13 10-26 19-44 17-73-8-128-54-145-126-20-84-26-170-34-256 102 0 203 0 305 0l0 234z m321-320h-95l0 151h-151l0 94h151l0 151h95l0-151h150l1-94h-151v-151z" horiz-adv-x="1000" />
<glyph glyph-name="chevronUp" unicode="&#xe087;" d="m250 147v140l250 266 250-264v-140l-250 261-250-263z" horiz-adv-x="1000" />
<glyph glyph-name="chevronDown" unicode="&#xe088;" d="m750 553v-140l-250-266-250 264v140l250-261 250 263z" horiz-adv-x="1000" />
<glyph glyph-name="chevronLeft" unicode="&#xe089;" d="m703 100h-140l-266 250 264 250h140l-261-250 263-250z" horiz-adv-x="1000" />
<glyph glyph-name="chevronRight" unicode="&#xe08a;" d="m297 600h140l266-250-264-250h-140l261 250-263 250z" horiz-adv-x="1000" />
<glyph glyph-name="peopleAdd" unicode="&#xe08c;" d="m691 591c0 55 13 93 37 127 66 88 194 77 238-22 31-68 21-134-23-192-42-55-114-72-170-43-58 30-78 82-82 130z m-258-317c57 29 78 81 81 130 0 54-12 93-37 126-65 89-194 77-238-22-30-68-21-133 24-192 41-54 114-72 170-42z m123-25c-30 10-54 11-80-12-35-30-76-46-124-37-33 6-61 22-86 43-11 9-22 17-38 15-62-7-109-47-124-108-17-72-22-146-29-219 200 0 400 0 600 0-6 69-13 138-25 206-10 57-40 92-94 112z m236-6h151v151h132c-23 29-57 47-98 52-15 2-26-6-37-15-26-21-53-38-86-43-48-9-90 7-125 37-26 23-49 22-79 11-55-19-85-55-95-111-1-7-2-14-3-20 7-2 14-4 22-7 72-25 115-77 128-152 2-9 3-18 5-27 28 0 57 0 85 0v124z m321-321h-95l0 151h-151l0 95h151v151h95v-151h151l0-95h-151v-151z" horiz-adv-x="1339" />
<glyph glyph-name="newsfeed" unicode="&#xe08d;" d="m152 775v-77-618-78h0c0-11-8-19-19-19-11 0-19 9-19 19v67 629h-39v-696c0-42 35-77 77-77h773c43 0 77 34 77 77v773h-850z m78-270h328v-193h-328v193z m695-425h-695v77h695v-77z m0 116h-695v77h695v-77z m0 115h-328v78h328v-78z m0 116h-328v78h328v-78z m0 116h-695v155h695v-155z" horiz-adv-x="1077" />
<glyph glyph-name="notebook" unicode="&#xe08e;" d="m290 107c0-21-16-37-37-37h-86c-21 0-37 16-37 37 0 20 16 36 37 36h86c21 0 37-16 37-36z m580 634v-782c0-19-16-34-35-34h-598c-19 0-34 15-34 34v81h51c36 0 66 30 66 67 0 36-30 66-66 66h-51v111h51c36 0 66 29 66 66s-30 67-66 67h-51v110h51c36 0 66 30 66 66s-30 67-66 67h-51v81c0 19 15 34 34 34h598c19 0 35-15 35-34z m-149-77h-333v-187h333v187z m-468-277h-86c-21 0-37-17-37-37 0-20 16-37 37-37h86c21 0 37 17 37 37 0 20-16 37-37 37z m0 243h-86c-21 0-37-16-37-37 0-20 16-36 37-36h86c21 0 37 16 37 36 0 21-16 37-37 37z" horiz-adv-x="1000" />
<glyph glyph-name="link" unicode="&#xe08f;" d="m1001 350c0-33-27-60-60-60h-532c-33 0-60 27-60 60 0 33 27 60 60 60h532c33 0 60-27 60-60z m-729-96c-53 0-96 43-96 96 0 53 43 96 96 96h359c-34 60-98 101-172 101h-187c-108 0-197-88-197-197 0-109 89-197 197-197h187c74 0 138 41 172 101h-359z m806 293h-187c-74 0-138-41-172-101h359c53 0 96-43 96-96 0-53-43-96-96-96h-359c34-60 98-101 172-101h187c109 0 197 88 197 197 0 109-88 197-197 197z" horiz-adv-x="1350" />
<glyph glyph-name="chevronsUp" unicode="&#xe090;" d="m250 308v140l250 266 250-264v-141l-250 261-250-262z m0-322v140l250 267 250-265v-140l-250 261-250-263z" horiz-adv-x="1000" />
<glyph glyph-name="chevronsDown" unicode="&#xe091;" d="m750 393v-140l-250-267-250 264v141l250-261 250 263z m0 321v-140l-250-266-250 264v140l250-261 250 263z" horiz-adv-x="1000" />
<glyph glyph-name="chevronsLeft" unicode="&#xe092;" d="m543 100h-140l-267 250 264 250h141l-261-250 263-250z m321 0h-140l-266 250 264 250h140l-261-250 263-250z" horiz-adv-x="1000" />
<glyph glyph-name="chevronsRight" unicode="&#xe093;" d="m458 600h140l266-250-264-250h-141l261 250-262 250z m-322 0h140l267-250-265-250h-140l261 250-263 250z" horiz-adv-x="1000" />
<glyph glyph-name="clutter" unicode="&#xe09a;" d="m179-75l84 479h474l84-479h-642z m454 637h-55v136c0 42-35 77-78 77-43 0-77-35-77-77v-136h-56c-58 0-105-47-105-105h476c0 58-47 105-105 105z" horiz-adv-x="1000" />
<glyph glyph-name="subscribe" unicode="&#xe09c;" d="m925 234v-173c0-16-16-32-32-32h-785c-16 0-33 16-33 32v173l186 327c4 5 12 9 17 11v-144l-89-197h151c11 0 19-5 25-13l39-74h192l40 74c5 8 14 13 24 13h152l-90 198v143c7-2 15-6 19-12l184-326z m-382 435h-86v-288l-122 130v-106l166-173 164 173v105l-122-129v288" horiz-adv-x="1000" />
<glyph glyph-name="unsubscribe" unicode="&#xe09d;" d="m925 234v-173c0-16-16-32-32-32h-785c-17 0-33 16-33 32v173l187 328c1 2 3 3 5 4l86-86h-50l-114-249h152c10 0 19-5 24-13l40-74h191l40 74c5 8 14 13 25 13h151l-114 249h-51l87 86c2-2 5-5 7-7l184-325z m-314 387l-111-111-111 111-48-48 111-111-111-111 48-48 111 112 111-112 48 48-111 111 111 111-48 48" horiz-adv-x="1000" />
<glyph glyph-name="personRemove" unicode="&#xe09e;" d="m611 523c-4-57-28-118-95-153-66-34-150-13-199 50-52 69-63 145-28 225 52 116 202 129 279 26 29-39 43-85 43-148z m57-269l52 52c-17 14-35 27-60 35-29 10-53 12-77-2l85-85z m-280-280l107 107-107 107 99 99c-21-5-42-7-66-3-38 7-71 26-101 51-13 10-25 19-44 17-73-8-128-54-145-126-20-84-26-171-34-257 99 0 197 0 296 0l-5 5z m454 0l-67-67-107 107-107-107-67 67 107 107-107 107 67 67 107-107 107 107 67-67-107-107 107-107z" horiz-adv-x="1000" />
<glyph glyph-name="receiptForward" unicode="&#xe0a0;" d="m500 775c-235 0-425-191-425-425 0-234 190-425 425-425s425 191 425 425c0 234-191 425-425 425z m0-778c-194 0-353 159-353 353 0 194 159 353 353 353 194 0 352-159 352-353 0-194-158-353-352-353z m-261 303v101h360l-159 150h130l213-201-214-201h-130l160 151h-360z m1035 247h-267c-29 0-51 23-51 51 0 28 22 51 51 51h267c28 0 51-23 51-51 0-28-23-51-51-51z m0-248h-186c-28 0-51 23-51 51 0 28 23 51 51 51h186c28 0 51-23 51-51 0-28-23-51-51-51z m0-248h-186c-28 0-51 23-51 51 0 28 23 51 51 51h186c28 0 51-23 51-51 0-28-23-51-51-51z" horiz-adv-x="1400" />
<glyph glyph-name="receiptReply" unicode="&#xe0a1;" d="m500 775c-235 0-425-191-425-425 0-234 190-425 425-425s425 191 425 425c0 234-191 425-425 425z m0-778c-194 0-353 159-353 353 0 194 159 353 353 353 194 0 352-159 352-353 0-194-158-353-352-353z m268 403v-101h-360l159-150h-130l-213 201 214 201h130l-160-151h360z m506 147h-267c-29 0-51 23-51 51 0 28 22 51 51 51h267c28 0 51-23 51-51 0-28-23-51-51-51z m0-248h-186c-28 0-51 23-51 51 0 28 23 51 51 51h186c28 0 51-23 51-51 0-28-23-51-51-51z m0-248h-186c-28 0-51 23-51 51 0 28 23 51 51 51h186c28 0 51-23 51-51 0-28-23-51-51-51z" horiz-adv-x="1400" />
<glyph glyph-name="receiptCheck" unicode="&#xe0a2;" d="m500 775c-235 0-425-191-425-425 0-234 190-425 425-425s425 191 425 425c0 234-191 425-425 425z m0-778c-194 0-353 159-353 353 0 194 159 353 353 353 194 0 352-159 352-353 0-194-158-353-352-353z m774 550h-267c-29 0-51 23-51 51 0 28 22 51 51 51h267c28 0 51-23 51-51 0-28-23-51-51-51z m0-248h-186c-28 0-51 23-51 51 0 28 23 51 51 51h186c28 0 51-23 51-51 0-28-23-51-51-51z m0-248h-186c-28 0-51 23-51 51 0 28 23 51 51 51h186c28 0 51-23 51-51 0-28-23-51-51-51z m-1048 277c-4 5-4 13 1 18l50 46c3 2 6 4 9 4 3 0 7-2 9-4l138-149 238 306c2 3 6 4 10 4 2 0 5 0 7-2l54-42c3-2 5-5 5-9 1-3 0-6-2-9l-306-392-213 229z" horiz-adv-x="1400" />
<glyph glyph-name="peopleRemove" unicode="&#xe0a3;" d="m691 591c0 55 13 93 37 127 66 88 194 77 238-22 30-68 21-134-24-192-41-55-113-72-170-43-57 30-77 82-81 130z m-258-317c57 29 78 81 81 130 0 54-12 93-37 126-65 89-194 77-238-22-30-68-21-133 24-192 41-54 114-72 170-42z m123-25c-30 10-54 11-80-12-35-30-77-46-124-37-33 6-61 22-86 43-11 9-22 17-38 15-63-7-109-47-124-108-17-72-22-145-29-219 200 0 400 0 600 0-6 69-13 138-25 206-10 57-40 92-94 112z m318-128l-107 107 173 172 107-106 52 52c-17 56-62 94-122 100-15 2-26-6-37-15-26-21-54-37-87-43-47-9-89 7-124 37-26 23-49 22-80 11-54-19-84-55-94-111-1-7-2-14-3-20 7-2 14-4 21-6 73-26 116-78 129-153 2-9 3-18 4-27 56 0 111 0 166 0l2 2z m347-107l-67-67-107 107-107-107-67 67 107 107-107 107 67 67 107-107 107 107 67-67-107-107 107-107z" horiz-adv-x="1296" />
<glyph glyph-name="merge" unicode="&#xe0a4;" d="m307 398l-150 140h122l200-189-199-187h-122l149 139h-232v97h232z m618 0v-97h-232l149-139h-122l-199 187 200 189h122l-150-140h232z" horiz-adv-x="1000" />
<glyph glyph-name="split" unicode="&#xe0a5;" d="m247 302l150-140h-122l-200 189 199 187h122l-149-139h232v-97h-232z m274 0v97h232l-149 139h122l199-187-200-189h-122l150 140h-232z" horiz-adv-x="1000" />
<glyph glyph-name="eventCancel" unicode="&#xe0a6;" d="m231 633v100c0 23 19 42 42 42 23 0 42-19 42-42v-100c0-23-19-41-42-41-23 0-42 18-42 41z m496-41c23 0 42 18 42 41v100c0 23-19 42-42 42-24 0-42-19-42-42v-100c0-23 18-41 42-41z m88-597h-630v471h630v-471z m-544 562c-42 0-76 34-76 76v59h-33c-22 0-40-18-40-40v-688c0-21 18-39 40-39h676c22 0 40 18 40 39v688c0 22-18 40-40 40h-35v-59c0-42-34-76-76-76h-4c-42 0-76 34-76 76v59h-296v-59c0-42-34-76-76-76h-4z m396-442l-53-53-114 114-114-114-53 53 114 114-114 114 53 52 114-114 114 114 53-52-114-114 114-114z" horiz-adv-x="1000" />
<glyph glyph-name="eventShare" unicode="&#xe0a7;" d="m231 633v100c0 23 19 42 42 42 23 0 42-19 42-42v-100c0-23-19-41-42-41-23 0-42 18-42 41z m496-41c23 0 42 18 42 41v100c0 23-19 42-42 42-24 0-42-19-42-42v-100c0-23 18-41 42-41z m88-597h-630v471h630v-471z m-544 562c-42 0-76 34-76 76v59h-33c-22 0-40-18-40-40v-688c0-21 18-39 40-39h676c22 0 40 18 40 39v688c0 22-18 40-40 40h-35v-59c0-42-34-76-76-76h-4c-42 0-76 34-76 76v59h-296v-59c0-42-34-76-76-76h-4z m312-286l-120 113h98l160-151-159-151h-98l119 113h-304v76h304z" horiz-adv-x="1000" />
<glyph glyph-name="today" unicode="&#xe0a9;" d="m673 775l-173-173-173 173h346z m-379-308v77c0 18 15 32 32 32 18 0 33-14 33-32v-77c0-17-15-32-33-32-17 0-32 15-32 32z m380-32c17 0 32 15 32 32v77c0 18-15 32-32 32-18 0-33-14-33-32v-77c0-17 15-32 33-32z m67-456h-482v360h482v-360z m-416 430c-32 0-59 26-59 58v45h-25c-16 0-30-14-30-30v-527c0-16 14-30 30-30h518c17 0 30 14 30 30v527c0 16-13 30-30 30h-27v-45c0-32-26-58-58-58h-3c-32 0-58 26-58 58v45h-227v-45c0-32-26-58-58-58h-3z" horiz-adv-x="1000" />
<glyph glyph-name="oofReply" unicode="&#xe0aa;" d="m354 69l217 205h143v501h-547v-850h340l-153 144z m-126 281c0 42 34 76 76 76 42 0 76-34 76-76 0-42-34-76-76-76-42 0-76 34-76 76z m605-244v-74h-258l114-107h-94l-152 144 153 144h93l-114-107h258z" horiz-adv-x="1000" />
<glyph glyph-name="voicemailReply" unicode="&#xe0ac;" d="m974 393c-55 19-96 70-96 132 0 77 63 140 140 140 77 0 140-63 140-140 0-36-14-68-36-93h128c11 29 18 60 18 93 0 138-112 250-250 250-138 0-250-112-250-250 0-52 16-100 43-140h-279c27 41 42 88 42 140 0 138-112 250-250 250-137 0-249-112-249-250 0-138 112-250 249-250h526l124 118z m-650-7c-76 0-139 62-139 139 0 77 62 140 139 140 78 0 140-63 140-140 0-77-62-140-140-140z m1072-197v-108h-377l167-156h-137l-223 210 224 211h137l-168-157h377z" horiz-adv-x="1471" />
<glyph glyph-name="voicemailForward" unicode="&#xe0ad;" d="m787 432c-11 29-18 60-18 93 0 138 112 250 249 250 138 0 250-112 250-250 0-86-44-162-112-207l-83 79c50 21 85 70 85 128 0 77-62 140-140 140-77 0-139-63-139-140 0-36 13-68 36-93h-128z m28-157h-491c-137 0-249 113-249 250 0 138 112 250 249 250 139 0 251-112 251-250 0-52-16-100-43-140h165l118-110z m-351 250c0 77-62 140-140 140-76 0-139-63-139-140 0-77 63-140 139-140 78 0 140 63 140 140z m191-336v-108h378l-167-156h136l224 210-224 211h-137l168-157h-378z" horiz-adv-x="1343" />
<glyph glyph-name="ribbon" unicode="&#xe0af;" d="m655 290c68 48 112 128 112 218 0 125-85 229-201 259-21 5-44 8-66 8-148 0-267-120-267-267 0-90 44-170 112-218l-156-270 131 34 34-129 146 253 146-253 34 129 131-34-156 270z m-154 82c-75 0-136 60-136 135 0 75 61 135 136 135 74 0 135-60 135-135 0-75-61-135-135-135z" horiz-adv-x="1000" />
<glyph glyph-name="contact" unicode="&#xe0b0;" d="m872 642h-744c-29 0-53-23-53-53v-478c0-29 24-53 53-53h744c29 0 53 24 53 53v478c0 30-24 53-53 53z m-291-160h266v-47h-266v47z m0-108h266v-47h-266v47z m-335 107c23 53 91 59 126 12 13-18 20-38 20-67-2-26-13-53-43-69-31-16-69-7-91 23-24 31-28 65-12 101z m-87-305c4 39 6 78 15 116 8 32 33 53 66 57 8 1 14-3 20-8 13-11 28-20 46-23 25-5 47 4 65 20 14 12 26 11 42 6 30-10 46-29 50-59 7-36 11-73 14-109-106 0-212 0-318 0z m422 89h266v-47h-266v47z" horiz-adv-x="1000" />
<glyph glyph-name="eye" unicode="&#xe0b1;" d="m659 300c0-88-71-159-159-159-88 0-159 71-159 159 0 88 71 159 159 159 88 0 159-71 159-159z m185-5c-69 119-197 199-344 199-147 0-275-80-343-199l-82 0c10 20 21 39 33 57 85 125 229 207 392 207 163 0 307-82 392-207 12-18 23-37 33-57l-81 0z" horiz-adv-x="1000" />
<glyph glyph-name="glasses" unicode="&#xe0b2;" d="m894 386c-17 81-88 141-173 141-63 0-118-33-150-83-20 19-44 31-71 31-26 0-51-12-71-32-31 51-87 84-150 84-85 0-156-61-173-141h-31v-71h31c16-81 87-142 173-142 42 0 81 15 111 40 25 20 45 47 56 78 6 19 10 38 10 59 0 0 0 1 0 1 11 25 30 35 44 35 14 0 33-10 44-34 0-1 0-1 0-2 0-21 4-42 11-61 11-30 30-57 55-77 31-24 69-39 111-39 86 0 157 61 173 142h31v71h-31z m-615-142c-59 0-106 48-106 106 0 58 47 106 106 106 54 0 98-40 105-92 1-4 1-9 1-14 0-16-4-31-10-45-17-36-54-61-96-61z m442 0c-42 0-78 24-95 60-7 14-11 29-11 46 0 5 1 11 1 16 8 51 52 90 105 90 59 0 106-48 106-106 0-58-48-106-106-106z" horiz-adv-x="1000" />
<glyph glyph-name="print" unicode="&#xe100;" d="m656 695v-157h-315v157h315m53 53h-421v-263h421v263l0 0z m163-216h-109v-100h-528v100h-107c-29 0-53-24-53-53v-317c0-30 24-53 53-53h160v-157h421v157h163c29 0 53 23 53 53v317c0 29-24 53-53 53z m-216-527h-315v157h315v-157z m134 158c-15 0-27 12-27 26 0 15 12 27 27 27 15 0 26-12 26-27 0-14-11-26-26-26z" horiz-adv-x="1000" />
<glyph glyph-name="room" unicode="&#xe101;" d="m877 725v-721h-208v516h-338v-516h-208v721h754z m-492-313l234 86v-537l-234-86v537z" horiz-adv-x="1000" />
<glyph glyph-name="post" unicode="&#xe102;" d="m764 412c11-55-4-112-40-155v-264h-379v202h-202v379h265c34 28 75 44 119 44 12 0 24-2 35-4l28 28h-515v-511l206-206h511v515l-28-28z m-474-419l-147 147h147v-147z m550 572l-137-137c20-48 11-105-29-145l-99 100c-105-92-173-146-183-142l0 0c-1 0-1 0-1 0 0 0 0 0 0 0l0 1c-4 10 50 78 142 183l-100 99c39 39 97 49 145 29l137 137c-5 30 5 62 28 85l182-182c-23-23-55-32-85-28z" horiz-adv-x="1000" />
<glyph glyph-name="toggle" unicode="&#xe103;" d="m925 696v-692h-850v692h850z m-64-63h-722v-566h722v566z m-348-64h284v-437h-284v437z" horiz-adv-x="1000" />
<glyph glyph-name="touch" unicode="&#xe104;" d="m276 592c0 101 82 183 183 183 101 0 183-82 183-183 0-65-33-121-84-154v62c23 24 36 56 36 92 0 74-60 135-135 135-75 0-136-61-136-135 0-37 15-71 39-95v-61c-52 33-86 90-86 156z m17-314c-9 9-22 15-36 15-28 0-50-22-50-49 0-11 4-22 10-30 0 0 0 0 0 0l193-216 65-73h101 175l42 287c0 2 0 5 0 7 0 32-25 57-56 57-15 0-28-5-38-14 1 1 1 2 1 3 0 31-26 57-57 57-15 0-29-6-39-15-1 30-26 55-57 55-14 0-27-5-36-14v233c0 28-23 51-51 51-27 0-50-23-50-51v-401h0c0-4-4-8-8-8-2 0-4 1-5 3l-104 103c0 0 0 0 0 0z" horiz-adv-x="1000" />
<glyph glyph-name="clock" unicode="&#xe105;" d="m500 775c-235 0-425-191-425-425 0-234 190-425 425-425s425 191 425 425c0 234-191 425-425 425z m0-778c-194 0-353 159-353 353 0 194 159 353 353 353 194 0 352-159 352-353 0-194-158-353-352-353z m0 306c-26 0-47 21-47 47v219c0 26 21 47 47 47 26 0 47-21 47-47v-172h138c26 0 47-21 47-47 0-26-21-47-47-47h-185z" horiz-adv-x="1000" />
<glyph glyph-name="fax" unicode="&#xe106;" d="m696 718v-167h-336v167h336m57 57h-449v-281h449v281l0 0z m0-601c0 46 38 84 84 84l23 0 0 128-24 0c-34 0-64 21-76 51h-513v107h-114c-31 0-56-25-56-57v-338c0-31 25-57 56-57h171v-167h449v167h0v82z m-57-192h-336v167h336v-167z m114 488c0-15 12-26 27-26h49c17 0 31-14 31-31l0-181c0-17-14-32-31-32l-49 0c-15 0-27-11-27-26v-106c0-15 12-27 27-27l25 0c84 0 140 78 153 169 0 0 9 31 8 102 0 70-8 122-8 122-11 94-69 169-153 169l-25 0c-15 0-27-12-27-27l0-106z" horiz-adv-x="1100" />
<glyph glyph-name="lightning" unicode="&#xe110;" d="m721 775c9 0 13-7 8-15l-185-310c-5-9-1-15 9-15l169 1c9 0 12-6 5-13l-435-494c-6-7-8-5-4 3l137 334c3 9-2 16-11 16l-134 0c-10 0-15 7-11 16l174 461c3 8 14 16 23 16h255z" horiz-adv-x="1000" />
<glyph glyph-name="dialpad" unicode="&#xe111;" d="m321 635h-140v140h140v-140z m253 140h-141v-140h141v140z m245 0h-140v-140h141v140z m-498-240h-140v-140h140v140z m253 0h-141v-140h141v140z m245 0h-140v-140h141v140z m-498-236h-140v-140h140v140z m253 0h-141v-140h141v140z m245 0h-140v-140h141v140z m-245-234h-141v-140h141v140z" horiz-adv-x="1000" />
<glyph glyph-name="phoneTransfer" unicode="&#xe112;" d="m629 29c12-16 8-38-7-50l-28-20c-92-66-216-31-301 64 0 0-51 50-107 127-56 78-70 119-70 119-59 110-58 239 34 306l27 20c16 11 38 8 50-8l84-117c12-16 8-38-8-50l-54-39c-19-14-23-40-9-59l143-198c13-19 39-23 58-10l54 40c16 11 38 7 50-8l84-117z m-176 574l21 165-76-62-29-221 221-16 76 62-165 12 212 172-49 60-211-172z m393-273l-22-164 77 62 29 220-221 16-76-62 164-12-211-172 48-59 212 171z" horiz-adv-x="1005" />
<glyph glyph-name="phoneAdd" unicode="&#xe113;" d="m924 621v-93h-153v-153h-93v153h-153v93h153v153h93v-153h153z m-239-405c-15 19-43 24-63 10l-68-49c-23-17-56-12-73 11l-180 249c-17 24-12 57 12 74l68 50c20 14 24 42 10 62l-106 147c-14 20-42 24-62 10l-35-25c-116-84-117-246-43-385 0 0 19-51 89-148 70-98 134-160 134-160 107-120 262-164 378-81l35 25c20 15 24 43 10 63l-106 147z" horiz-adv-x="1000" />
<glyph glyph-name="late" unicode="&#xe114;" d="m693 707c0-37-31-67-68-67-37 0-68 30-68 67 0 38 31 68 68 68 37 0 68-30 68-68m-163-56l-183-95-70-176 54-23 72 151 79 44c0 0-43-127-51-151-8-24 8-63 20-83l-57-172-215 1 16-68 258-14 61 133 32-55 79-218 72 23-76 254-67 112 55 170 27-93 184 23 1 59-132-4-40 135-119 47z" horiz-adv-x="1000" />
<glyph glyph-name="chatAdd" unicode="&#xe115;" d="m925 775h-851v-637h263l328-213-68 213h328v637z m-379-363v-147h-92l0 147h-147l0 92h147v147h92v-147h147l0-92h-147z" horiz-adv-x="1000" />
<glyph glyph-name="conflict" unicode="&#xe116;" d="m307 233l-233-7 98 98 312 9-10-310-97-98 7 231-225-226-78 78 226 225z m535 536l78-77-226-226 231 7-98-98-310-9 9 312 98 97-8-232 226 226z" horiz-adv-x="1000" />
<glyph glyph-name="navigate" unicode="&#xe117;" d="m186-75l313 850 315-850-315 177-313-177z" horiz-adv-x="1000" />
<glyph glyph-name="camera" unicode="&#xe119;" d="m605 272c0-58-47-105-105-105-58 0-105 47-105 105 0 58 47 105 105 105 58 0 105-47 105-105m320 204v-360c0-58-47-104-104-104h-642c-57 0-104 46-104 104v360c0 58 46 104 104 104h150l17 51c11 32 47 57 81 57h146c34 0 69-25 80-58l17-50h151c57 0 104-46 104-104m-674-25c0 20-16 36-36 36-20 0-36-16-36-36 0-20 16-36 36-36 20 0 36 16 36 36m413-179c0 91-74 164-164 164s-164-73-164-164c0-90 73-164 164-164s164 74 164 164" horiz-adv-x="1000" />
<glyph glyph-name="filter" unicode="&#xe11a;" d="m535-75c23 0 42 19 42 42v326c0 11 4 21 11 29l325 347c7 8 11 18 11 29v35c0 23-18 42-42 42h-764c-24 0-42-19-42-42v-35c0-11 4-21 11-29l325-347c7-8 11-18 11-29v-326c0-23 19-42 42-42h70z" horiz-adv-x="1000" />
<glyph glyph-name="fullscreen" unicode="&#xe11b;" d="m252 25l232 7-98-98-311-9 9 310 97 98-7-231 236 236 77-78-235-235z m338 338l-77 77 235 236-231-7 98 97 310 9-9-311-98-98 8 233-236-236z" horiz-adv-x="1000" />
<glyph glyph-name="new" unicode="&#xe11c;" d="m882 393h-239c-3 9-7 19-12 28l170 169c16 17 16 44 0 61-17 16-44 16-60 0l-170-170c-9 5-19 9-28 12v240c0 23-20 42-43 42-23 0-43-19-43-42v-240c-9-3-19-7-28-12l-169 170c-17 16-44 16-60 0-17-17-17-44 0-61l169-169c-5-9-9-19-12-28h-239c-24 0-43-19-43-43 0-23 19-42 43-42h239c3-10 7-20 12-29l-169-169c-17-17-17-44 0-60 8-9 19-13 30-13 10 0 21 4 30 13l169 169c9-5 19-8 28-11v-241c0-23 20-42 43-42 23 0 43 19 43 42v241c9 3 19 6 28 11l170-169c8-9 19-13 30-13 11 0 22 4 30 13 16 16 16 43 0 60l-170 169c5 9 9 19 12 28h239c24 0 43 20 43 43 0 24-19 43-43 43z m-382-107c-35 0-64 29-64 64 0 35 29 64 64 64 35 0 64-29 64-64 0-35-29-64-64-64z" horiz-adv-x="1000" />
<glyph glyph-name="mailEmpty" unicode="&#xe11d;" d="m854 651h-708c-20 0-37-16-37-37v-528c0-20 17-37 37-37h708c21 0 37 16 37 37v528c0 20-16 37-37 37z m-42-75l-306-239-308 239h614z m4-452h-632v367l299-231c7-6 15-8 23-8 8 0 16 2 23 8l287 223v-359z" horiz-adv-x="1000" />
<glyph glyph-name="editBox" unicode="&#xe11e;" d="m876 536v-534h-801v647h457l-80-80h-297v-487h641v368c0 0 76 78 80 86z m-63 34c8 9 8 23 0 32l-105 104c-8 9-23 9-31 0l-334-333c-9-9-9-23 0-32l104-104c9-9 23-9 32 0l334 333z m95 100c-7-10-20-25-29-34-9-8-23-8-32 1l-104 104c-9 9-9 23 0 31 8 9 23 22 33 30 0 0 59 45 118-14 60-60 14-118 14-118z m-622-507c-12-2-20 5-17 17l18 70c2 12 12 14 21 6l53-54c9-8 7-18-5-21l-70-18z" horiz-adv-x="1000" />
<glyph glyph-name="waffle" unicode="&#xe11f;" d="m288 563h-213v212h213v-212z m318 212h-212v-212h212v212z m319 0h-212v-212h212v212z m-637-319h-213v-212h213v212z m318 0h-212v-212h212v212z m319 0h-212v-212h212v212z m-637-318h-213v-213h213v213z m318 0h-212v-213h212v213z m319 0h-212v-213h212v213z" horiz-adv-x="1000" />
<glyph glyph-name="work" unicode="&#xe120;" d="m859 775v-558h-718v558h718z m0-588v-262h-295v195h-127v-195h-296v262h718z m-558 394v96h-96v-96h96z m0-131v97h-96v-97h96z m0-131v97h-96v-97h96z m166 262v96h-97v-96h97z m0-131v97h-97v-97h97z m0-131v97h-97v-97h97z m164 262v96h-97v-96h97z m0-131v97h-97v-97h97z m0-131v97h-97v-97h97z m67 262h99v96h-99v-96z m99-131v97h-99v-97h99z m0-131v97h-99v-97h99z" horiz-adv-x="1000" />
<glyph glyph-name="eventRecurring" unicode="&#xe121;" d="m679 110h-73c23 121 126 181 228 161 35-6 66-22 91-45l0 84 50-47 0-136-136 0-50 49 91 0c-16 15-36 26-59 30-65 13-129-30-142-96z m90-146c-22 5-42 16-59 31l92-1-50 50-136 0 0-137 49-47 0 85c26-23 57-39 92-46 102-20 205 41 228 161h-73c-13-66-77-109-143-96z m-108 660c20 0 36 16 36 35v84c0 19-16 35-36 35-19 0-35-16-35-35v-84c0-19 16-35 35-35z m-121-542c0 15 1 29 4 43h-336v394h527v-186c17 5 35 7 53 8v334c0 18-15 33-33 33h-29v-49c0-35-29-64-64-64h-3c-36 0-64 29-64 64v49h-248v-49c0-35-29-64-64-64h-3c-35 0-64 29-64 64v49h-28c-18 0-33-15-33-33v-576c0-18 15-33 33-33h353c-1 5-1 11-1 16z m-258 542c19 0 35 16 35 35v84c0 19-16 35-35 35-20 0-36-16-36-35v-84c0-19 16-35 36-35z" horiz-adv-x="1000" />
<glyph glyph-name="cart" unicode="&#xe122;" d="m273 173c51 0 91-41 91-91 0-50-40-92-91-92-50 0-91 42-91 92 0 50 41 91 91 91z m287-91c0-50 41-92 91-92 50 0 92 42 92 92 0 50-42 91-92 91-50 0-91-41-91-91z m367 628h-131l-36-124h-582c-35 0-63-28-63-63 0-5 0-9 1-13l68-245c5-29 31-50 61-50h443c30 0 56 21 61 50l103 370h75c21 0 38 17 38 37 0 21-17 38-38 38z" horiz-adv-x="1000" />
<glyph glyph-name="socialListening" unicode="&#xe123;" d="m921 509v-315c0-36-30-66-66-66h-315l-253-243 17 243h-158c-37 0-67 30-67 66v213l90 0c5-33 33-57 66-57 20 0 37 8 49 21l170-88c0 0 0 0 0-1 0-37 30-67 68-67s67 30 67 67c0 12-4 23-9 33l126 145c10-6 22-10 34-10 35 0 63 26 67 59h114z m-749-69c10 26 34 44 63 44 38 0 68-30 68-67 0-6-1-11-3-17l164-84c11 20 33 33 57 33 13 0 25-3 36-10l125 146c-6 9-9 21-9 33 0 37 30 67 67 67 28 0 53-17 63-42h118v126c0 36-30 66-66 66h-709c-37 0-67-30-67-66v-229l93 0z" horiz-adv-x="1000" />
<glyph glyph-name="mapMarker" unicode="&#xe124;" d="m500 775c-137 0-249-111-249-249 0-36 8-70 22-101l228-500 226 500c14 31 22 65 22 101 0 138-112 249-249 249z m0-332c-46 0-83 38-83 83 0 46 37 83 83 83s83-37 83-83c0-46-37-83-83-83z" horiz-adv-x="1000" />
<glyph glyph-name="org" unicode="&#xe125;" d="m925 231v-283h-377v283h157v79h-410v-79h157v-283h-377v283h157v142h236v97h-156v282h376v-283h-156v-96h236l0-143h157z" horiz-adv-x="1000" />
<glyph glyph-name="replyAlt" unicode="&#xe150;" d="m363 430h562v-160h-562l248-234h-204l-332 314 333 314h204l-249-234z" horiz-adv-x="1000" />
<glyph glyph-name="replyAllAlt" unicode="&#xe152;" d="m719 270l248-234h-203l-247 234h-151l248-234h-203l-332 315 333 313h203l-249-234h151l248 234h203l-249-234h502v-160h-502z" horiz-adv-x="1300" />
<glyph glyph-name="eventInfo" unicode="&#xe154;" d="m231 633v100c0 23 19 42 42 42 23 0 42-19 42-42v-100c0-23-19-41-42-41-23 0-42 18-42 41z m496-41c23 0 42 18 42 41v100c0 23-19 42-42 42-24 0-42-19-42-42v-100c0-23 18-41 42-41z m88-597h-630v471h630v-471z m-544 562c-42 0-76 34-76 76v59h-33c-22 0-40-18-40-40v-688c0-21 18-39 40-39h676c22 0 40 18 40 39v688c0 22-18 40-40 40h-35v-59c0-42-34-76-76-76h-4c-42 0-76 34-76 76v59h-296v-59c0-42-34-76-76-76h-4z m270-494h-83v210h83v-210z m6 297c0 25-21 46-47 46-26 0-47-21-47-46 0-26 21-47 47-47 26 0 47 21 47 47z" horiz-adv-x="1000" />
<glyph glyph-name="group" unicode="&#xe155;" d="m1231 243c52-10 97 9 135 45 29 27 54 26 88 13 59-23 92-66 103-134 13-81 21-164 27-246-102 0-205 0-307 0l-1 5c-7 85-17 177-33 270-2 17-6 32-12 47z m136 367c-72 98-212 85-261-23-33-75-23-146 26-211 46-59 125-79 187-46 62 32 85 89 89 142 0 60-14 102-41 138z m-1116-138c4-53 27-110 89-142 62-32 141-13 187 46 49 65 59 136 26 211-49 109-189 121-261 24-27-37-41-79-41-139z m967-551c-8 89-17 177-33 265-12 73-51 120-121 144-39 14-69 15-103-14-45-39-99-60-160-49-43 8-79 29-112 56-14 12-28 22-48 20-81-9-141-61-160-139-22-93-28-188-37-283 258 0 516 0 774 0z m-256 772c-84 115-250 100-307-28-39-88-27-172 31-248 53-70 146-92 219-54 74 38 101 104 105 167 0 71-16 120-48 163z m-577-767c1 13 2 26 4 39 7 83 15 168 35 252 2 9 4 18 7 26 0 0-1 0-2 0-52-10-98 9-136 45-29 27-54 26-88 13-59-23-92-65-103-134-13-81-21-164-27-246 103 0 206 0 309 0l1 5z" horiz-adv-x="1659" />
<glyph glyph-name="money" unicode="&#xe161;" d="m75 669v-638h1050v638h-1050z m987-442c-73 0-132-59-132-132 0 0 0 0 0-1h-659c0 1 0 1 0 1 0 73-60 132-133 132v246c73 0 133 59 133 133h659c0-73 59-132 132-133v-245z m-291 123c0-94-77-171-171-171s-171 77-171 171 77 171 171 171 171-77 171-171z" horiz-adv-x="1200" />
<glyph glyph-name="graph" unicode="&#xe162;" d="m207 10h718v-85h-765-85v85 765h85v-681l85 137 190-74 89 283 241 62 87 149 73-43-105-179-229-59-102-325-209 81-73-116z" horiz-adv-x="1000" />
<glyph glyph-name="noteEdit" unicode="&#xe163;" d="m208 612v114c0 27 22 49 49 49 27 0 49-22 49-49v-114c0-28-22-50-49-50-27 0-49 22-49 50z m408-50c27 0 49 22 49 50v114c0 27-22 49-49 49s-49-22-49-49v-114c0-28 22-50 49-50z m309 67l-81-81 127-127 81 80-127 128z m-433-572l124 64-59 60-65-124z m270 409l127-128 33 33-129 128 1 1v179h-81v-69c0-53-44-96-97-96-54 0-97 43-97 96v69h-166v-69c0-53-43-96-97-96-53 0-96 43-96 96v69h-85v-754h719v316l-146-157-228-99 97 229 245 252z" horiz-adv-x="1127" />
<glyph glyph-name="dashboard" unicode="&#xe164;" d="m500 775c-235 0-425-190-425-425s190-425 425-425 425 190 425 425-190 425-425 425z m-359-394c-6 24 9 48 33 54 24 6 49-9 54-33 6-24-9-48-33-54-24-6-48 9-54 33z m105-199c-17-18-46-19-64-2-18 18-19 46-2 64 18 18 46 19 64 2s19-46 2-64z m55 359c-9-23-35-35-58-27-23 8-36 34-27 58s34 35 57 27c24-8 36-34 28-58z m136 78c-20-15-48-11-63 9-15 19-11 48 8 63 20 15 48 11 63-9 16-19 12-48-8-63z m193-93l-88-232 0 0c-1-3-2-5-3-8-12-21-39-29-60-17-21 12-29 39-17 60 1 3 3 5 5 7l0 0 152 196c4 6 13 1 11-6z m-36 84c-25-2-47 17-48 42s16 46 41 48c25 2 46-17 48-42s-16-46-41-48z m126-93c-21 12-30 39-18 61 12 22 40 30 61 18 22-12 30-39 18-61-12-22-39-30-61-18z m112-307c-2-25-24-44-49-42s-43 24-41 49c2 25 24 43 49 41 24-2 43-24 41-48z m5 142c-22-12-49-4-61 18-12 22-4 49 18 61 22 12 49 4 61-18s4-49-18-61z" horiz-adv-x="1000" />
<glyph glyph-name="mailEdit" unicode="&#xe165;" d="m416 412l-334 238c7 10 15 14 25 14h627c4 0 8-1 12-3 4-2 7-4 10-7l-340-242z m123-217l204 204c6 7 15 12 24 14v162l-332-234c-2-3-5-4-8-5-4-1-7-2-11-2-4 0-7 1-11 2-3 1-6 2-9 5l-321 227v-359c0-9 3-17 10-23 7-7 14-11 22-11h419c3 8 7 14 13 20z m317 90c6 5 6 14 0 19l-63 63c-5 6-14 6-19 0l-204-203c-5-5-5-14 0-19l64-64c5-5 14-5 19 0l203 204z m50 132c37-36 9-72 9-72-5-6-13-15-18-20-5-5-14-5-19 0l-64 64c-5 5-5 14 0 19 5 5 14 13 20 18 0 0 36 28 72-9m-368-381c-9-2-15 4-13 13l14 55c2 9 9 11 16 4l42-42c7-6 5-14-5-16l-54-14z" horiz-adv-x="1000" />
<glyph glyph-name="pinLeft" unicode="&#xe167;" d="m819 214l-263 0c-27-65-91-111-166-111l0 191c-189 13-306 26-312 39l-1 0c0 0 0 1 0 1 0 0 0 1 0 1l1 0c6 13 123 26 312 39l0 191c75 0 139-46 166-111l263 0c24 33 63 55 108 55l0-350c-44 0-84 22-108 55z" horiz-adv-x="1000" />
<glyph glyph-name="heart" unicode="&#xe16a;" d="m925 490c0 122-99 221-221 221-92 0-170-55-204-134-34 79-112 134-204 134-122 0-221-99-221-221 0-63 26-120 69-160l-1-1 357-340 356 340 0 1c43 40 69 97 69 160z" horiz-adv-x="1000" />
<glyph glyph-name="heartEmpty" unicode="&#xe16b;" d="m704 641c40 0 78-15 107-44 28-29 44-67 44-107 0-21-4-42-13-61-8-18-19-35-34-49l-51-48 0-1-257-245-257 245 0 1-51 48c-15 14-26 31-35 49-8 19-12 40-12 61 0 40 16 78 44 107 29 28 67 44 107 44 30 0 60-9 84-25 25-17 45-46 58-64 14-18 62-94 62-94s50 78 61 94c11 17 34 47 58 64 25 16 54 25 85 25m0 70c-92 0-170-55-204-134-34 79-112 134-204 134-122 0-221-99-221-221 0-63 26-120 69-160l-1-1 357-340 356 340 0 1c42 40 69 97 69 160 0 122-99 221-221 221l0 0z" horiz-adv-x="1000" />
<glyph glyph-name="picture" unicode="&#xe16c;" d="m435 181h-236c-3 0-8 1-11 7-4 6-1 12 1 15l173 242c2 2 11 12 26 12 15 0 25-8 27-11l111-141-91-124z m35 0l149 206c2 3 8 10 22 10 14 0 24-10 24-10l143-183c2-3 5-10 2-16-3-7-6-6-11-7h-329z m373 512v-686h-686v686h686m82 82h-850v-850h850v850l0 0z m-394-260c-32 0-58-26-58-58s26-58 58-58 58 26 58 58-26 58-58 58z" horiz-adv-x="1000" />
<glyph glyph-name="cake" unicode="&#xe16d;" d="m460 599h80v-172h-80v172z m5 59c11-19 35-26 55-15 12 7 20 20 20 33 0 1 0 1 0 1 0 2 0 3 0 5v0c-3 32-10 93-10 93-30-42-45-56-55-67-1 0-2-1-3-2-1-1-1-1-1-1l-1-1c-11-12-14-31-5-46m247-439c-48-47-138-47-186 0-29 29-91 29-120 0-48-47-138-47-186 0-13 14-34 20-54 22v-161h669v137c-1 1-2 2-3 2-29 29-91 29-120 0m-339 60c48 47 138 47 186 0 29-29 91-29 120 0 38 37 106 44 156 20v79h-669v-65c32-1 64-12 87-34 29-29 91-29 120 0m552-307v1c0 26-21 47-47 47h-755c-26 0-47-21-47-47v-1c0-26 21-47 47-47h755c26 0 47 21 47 47z" horiz-adv-x="1000" />
<glyph glyph-name="books" unicode="&#xe16e;" d="m301 742h-185c-22 0-41-19-41-41v-712c0-23 19-42 41-42h185c22 0 41 19 41 42v712c0 22-19 41-41 41z m3-240c0-15-12-27-27-27h-134c-15 0-27 12-27 27v23c0 15 12 27 27 27h134c15 0 27-12 27-27v-23z m0 113c0-15-12-27-27-27h-134c-15 0-27 12-27 27v23c0 15 12 27 27 27h134c15 0 27-12 27-27v-23z m298 127h-184c-23 0-42-19-42-41v-712c0-23 19-42 42-42h184c23 0 41 19 41 42v712c0 22-18 41-41 41z m3-240c0-15-12-27-26-27h-135c-15 0-27 12-27 27v23c0 15 13 27 27 27h135c14 0 26-12 26-27v-23z m0 113c0-15-12-27-26-27h-135c-15 0-27 12-27 27v23c0 15 13 27 27 27h135c14 0 26-12 26-27v-23z m258 134l-166-79c-21-9-30-34-20-55l302-644c10-20 35-29 56-20l166 79c21 9 30 34 20 55l-303 644c-9 21-34 29-55 20z m106-216c6-13 0-29-13-36l-122-57c-13-6-29 0-36 13l-9 21c-7 14-1 30 12 36l122 57c13 6 29 1 36-13l10-21z m-49 103c7-14 1-30-12-36l-122-57c-13-7-29-1-36 13l-10 21c-6 13 0 29 13 35l122 57c13 7 29 1 35-12l10-21z" horiz-adv-x="1300" />
<glyph glyph-name="chart" unicode="&#xe16f;" d="m924 318h1v-390h-850v136l266 265 161-161 286 286 136-136z m-270 454l105-105-257-257-161 161-266-266v-122l266 265 161-161 318 318 102-101h3v267h-271z" horiz-adv-x="1000" />
<glyph glyph-name="video" unicode="&#xe170;" d="m925 424l0-379c0-19-12-24-26-12l-87 74c-6 5-11 13-16 21h-38v-75c0-20-17-37-37-37l-530 0c-21 0-37 17-37 37v330c0 20 16 37 37 37h530c20 0 37-17 37-37v-43h39c4 8 9 15 15 20l87 75c15 13 26 7 26-11m-820-20c-17 0-30-14-30-30v-121c0-17 13-30 30-30 16 0 30 13 30 30v121c0 16-14 30-30 30m479 30c69 0 125 56 125 125 0 69-56 125-125 125-69 0-125-56-125-125 0-69 56-125 125-125m-269 0c69 0 125 56 125 125 0 69-56 125-125 125-69 0-125-56-125-125 0-69 56-125 125-125" horiz-adv-x="1000" />
<glyph glyph-name="soccer" unicode="&#xe171;" d="m483 463l101-138-100-139-163 53 0 171 162 53z m85-533c-23-3-46-5-68-5-210 0-386 150-419 357-38 232 120 450 351 488 23 3 46 5 68 5 210 0 386-150 420-357 37-231-121-450-352-488z m278 336l-63-35-87 114 71 139 69-14c-31 86-93 156-172 197l14-60-163-36-90 90 35 43c-5-1-11-1-17-2-66-11-124-39-172-80l-24-159-100-63c-5-35-4-70 1-107 3-16 7-32 12-48l99-40 52-157c38-24 81-41 128-49l79 97 161 26 15-71c76 50 131 127 152 215z" horiz-adv-x="1000" />
<glyph glyph-name="meal" unicode="&#xe172;" d="m301 752c2 13 26 13 27 0l22-171c2-16 33-16 35 1l15 172c0 10 20 11 21 1l26-167c5-33-6-67-32-93l-21-22c-38-39-56-88-51-137l36-364c2-25-22-46-55-48h-18c-33 2-57 23-55 48l36 364c5 49-13 98-51 137l-21 22c-26 26-37 60-32 93l26 167c2 10 21 9 22-1l15-172c1-17 33-17 35-1l20 171z m373-82l-58-393c-1-12 11-22 27-22h34c17 0 30-11 28-24l-34-264c-3-23 20-43 50-43h21c23 0 42 14 42 32 0 0 0 785 0 791 0 15-2 29-37 27-29-1-64-41-73-104z" horiz-adv-x="1000" />
<glyph glyph-name="balloon" unicode="&#xe173;" d="m903 510c0 118-95 213-213 213-107 0-195-79-210-182l-1 0c0 0-7-28 2-74 0 0 0 0 0 0 12-62 51-156 172-265l-18-23 13-2-41-208-145 296 15 8-25 15c12 24 23 47 32 69-21 40-32 75-37 103 0 1 0 1 0 1-10 52-3 84-2 88l7 29 0 0c9 31 24 61 45 86-1 1-1 1-1 1-56 103-186 141-289 85-94-51-133-163-97-261l-1 0c0 0 8-27 38-63 0 0 0-1 0-1 40-48 119-112 276-150l-1-32 14 8 162-327 30 0 50 249 18-3-12 31c234 157 219 309 219 309z" horiz-adv-x="1000" />
<glyph glyph-name="cat" unicode="&#xe174;" d="m763 479c-23 29-51 56-82 81-22 19-34 44-34 74 0 10 1 19 4 28 1 4 2 7 4 10 7 17-1 37-18 44-17 7-36-1-43-18-1-1-1-3-2-4-7-19-11-39-11-60 0-49 21-93 59-125 50-41 89-89 116-140 25-50 38-104 38-159 0-16-2-34-5-51-10-47-29-93-41-109 7 27 10 55 10 84 0 43-7 83-20 121-5 13-10 26-16 39-44 93-127 164-227 194-9 3-16 9-20 18l-72 138c-9 15-20 29-33 39-9 7-18 12-28 16-14 35-43 62-77 76-4 1-8-3-6-7 10-18 15-39 16-60-39-6-72-30-90-64l-43-52c-1-3-2-5-2-8 0-4 1-7 3-10l24-38c4-5 10-9 17-9l43 0c4 0 7-4 6-8-2-5-3-10-4-14-5-16-7-38-8-64 0-80 34-151 89-201l-29-228c-1-12-8-22-19-27-8-4-17-9-20-12-5-5-8-12-8-20 0-16 13-28 28-28h52c8 0 16 5 20 13l102 240c0-1-7-35-7-52 0-59 28-111 71-144h-43c-8 0-15-3-20-8-5-6-8-13-8-21 0-15 13-28 28-28 0 0 239 0 240 0 20 0 71 40 98 78 25 37 65 133 65 206 0 98-34 190-97 270z m-543 113c0 0 0 0 0 0-14 0-26 13-23 29 2 8 9 15 18 17 15 4 29-8 29-23 0-1 0-2-1-4-2-10-12-19-23-19z" horiz-adv-x="1000" />
<glyph glyph-name="dog" unicode="&#xe175;" d="m919 500c0 36-29 65-65 65s-64-29-64-65c0-33 25-60 57-64-8-30-21-59-39-86-22 16-48 25-77 25-62 0-115-43-130-100h-75c-26 55-80 94-143 99v39c33 14 58 41 70 76 6-8 14-15 22-22 41-32 87-41 104-19 17 21-2 64-43 96-11 9-22 16-33 21 18 21 28 46 28 73 0 75-82 137-184 137-102 0-185-62-185-137 0-36 19-69 49-93-1-6-1-12-1-18h-108c-19 0-27-22-14-35 26-23 74-50 155-49 21-23 50-38 84-40v-33c-78-18-136-88-136-171 0-65 35-121 87-152-20-32-48-60-81-81-10-6-13-20-7-31 5-7 12-10 20-10 4 0 8 1 12 3 40 26 74 61 99 102 14-4 30-6 46-6 85 0 156 60 172 140h82c22-33 59-55 101-57 20-73 68-138 132-179 4-2 8-3 12-3 8 0 15 4 19 10 7 11 4 25-7 32-53 33-92 85-110 144 56 16 97 68 97 129 0 38-15 71-39 96 21 31 36 65 45 102 27 8 48 33 48 62z m-601 51c0-20-16-37-36-37-20 0-37 17-37 37 0 20 17 36 37 36 20 0 36-16 36-36z" horiz-adv-x="1000" />
<glyph glyph-name="bag" unicode="&#xe176;" d="m824 453v-528h-648v528h648z m-223 40v120c0 29-7 56-21 80-6 1-13 2-19 2-10 0-19-1-28-5 18-21 28-48 28-77v-120h40z m-202 0h40v120c0 45 25 85 61 106 14 8 30 13 47 15 4 1 9 1 14 1 67 0 122-55 122-122v-120h40v120c0 89-73 162-162 162-22 0-42-4-61-12-17-7-33-17-47-29-33-29-54-73-54-121v-120z m-81 120c0 52 31 95 76 113 13 19 29 35 47 49-89 0-164-73-164-162v-120h40v120z" horiz-adv-x="1000" />
<glyph glyph-name="music" unicode="&#xe177;" d="m386 669v-557c-28 17-64 28-104 28-86 0-155-48-155-108 0-59 69-107 155-107 86 0 155 48 155 107v527l385 84v-381c-28 17-64 28-104 28-86 0-155-49-155-108 0-59 69-107 155-107 86 0 155 48 155 107v593l-487-106z" horiz-adv-x="1000" />
<glyph glyph-name="stopwatch" unicode="&#xe178;" d="m872 569l-82 81c-8 9-22 9-31 0-9-8-9-23 0-31l17-17-50-50c-54 45-121 74-195 81v97h48c12 0 22 10 22 23s-10 22-22 22h-157c-12 0-22-10-22-22s10-23 22-23h45v-97c-74-7-141-36-195-81l-50 50 19 19c9 9 9 23 0 31-9 9-23 9-31 0l-82-81c-8-8-8-23 0-31 5-5 10-7 16-7 6 0 12 2 16 7l17 17 50-50c-52-62-83-141-83-227 0-196 159-355 355-355s355 159 355 355c0 86-31 165-83 227l50 50 19-19c5-5 10-7 16-7 6 0 11 2 16 7 8 8 8 22 0 31z m-213-449c-6-6-14-10-23-10s-16 3-22 10l-147 147v252c0 18 14 32 32 32 18 0 32-14 32-32v-226l128-128c12-13 12-33 0-45z" horiz-adv-x="1000" />
<glyph glyph-name="coffee" unicode="&#xe179;" d="m697 471c-1 8-1 13-2 15l-7 39h-512l-7-39c-2-12-50-301 125-491l14-15h249l14 15c27 30 48 61 65 94 3 0 5-1 8-1 39 0 77 12 110 35 43 29 72 74 81 125 19 100-42 196-138 223z m84-213c-7-37-28-69-58-90-19-13-40-20-61-23 38 99 43 200 40 266 57-27 91-89 79-153z m-319 442c20 19 29 39 27 57-2 25-25 43-25 43-7 5-9 14-5 22 5 7 14 10 22 7 3-2 64-31 72-80 5-25-5-49-28-73-20-19-29-38-28-56 2-26 26-43 26-43 7-6 9-15 4-23-3-5-8-8-14-8-3 0-5 1-7 2-3 1-64 30-72 79-5 25 5 50 28 73z m-112-54c9 9 14 18 13 27-1 11-11 19-11 19-7 5-9 14-5 22 5 7 14 10 22 7 4-2 40-20 45-51 2-11 0-29-18-48-10-9-14-18-14-26 1-11 12-19 12-19 7-5 9-15 4-22-3-6-8-9-14-9-2 0-5 1-7 2-4 2-40 19-45 50-2 12-1 29 18 48z" horiz-adv-x="1000" />
<glyph glyph-name="briefcase" unicode="&#xe17a;" d="m730 221l195 220v-418c0-39-31-70-69-70h-712c-38 0-69 31-69 70v417l195-219h460z m-22 50h-416l-217 244c0 38 31 73 69 73h145v90c0 38 31 69 70 69h282c39 0 70-31 70-69v-90h144c39 0 70-33 70-72m-583 72h316v85c0 12-9 22-21 22h-274c-11 0-21-10-21-22v-85z" horiz-adv-x="1000" />
<glyph glyph-name="pill" unicode="&#xe17b;" d="m925 554c0 122-99 221-221 221-61 0-116-25-156-65l-408-408c-86-86-86-226 0-312 86-86 226-86 312 0l406 406 2 2 0 0c40 40 65 95 65 156z m-511-526c-65-65-171-65-236 0-65 65-65 171 0 236l205 205 235-236-204-205z" horiz-adv-x="1000" />
<glyph glyph-name="trophy" unicode="&#xe17c;" d="m764 720h0v55h-527v-55h-1-161c0 0 0-138 0-178 0-86 65-192 161-192h42c27-47 71-102 143-159v-133c0 0-133-20-133-133h424c0 113-133 133-133 133v133c72 57 116 112 143 159h42c96 0 161 106 161 193 0 39 0 177 0 177h-161z m-528-316c-71 0-107 86-107 140s0 124 0 124h107 1v-175c0 0-4-35 16-89h-17z m635 140c0-54-36-140-107-140h-17c20 54 17 89 17 89v175h0 107c0 0 0-71 0-124z" horiz-adv-x="1000" />
<glyph glyph-name="firstAid" unicode="&#xe17d;" d="m765 589v85c0 42-34 76-75 76h-380c-41 0-75-34-75-76v-85h-118c-23 0-42-18-42-42v-555c0-23 19-42 42-42h766c23 0 42 19 42 42v555c0 23-19 42-42 42h-118z m-412 76h294c7 0 14-6 14-14v-62h-321v62c0 8 6 14 13 14z m361-448h-163v-163h-102v163h-163v102h163v163h102v-163h163v-102z" horiz-adv-x="1000" />
<glyph glyph-name="plane" unicode="&#xe17e;" d="m310-40h78l216 341h271c28 0 50 23 50 50 0 28-22 51-50 51h-273l-214 338h-78l99-338h-196l-60 69h-78l50-120-50-119h78l60 69h197l-100-341z" horiz-adv-x="1000" />
<glyph glyph-name="page" unicode="&#xe17f;" d="m127 775v-850h746v850h-746z m108-319h265v-53h-265v53z m0-106h265v-53h-265v53z m0-106h265v-53h-265v53z m530-214h-265v53h265v-53z m0 531h-530v106h530v-106z" horiz-adv-x="1000" />
<glyph glyph-name="car" unicode="&#xe180;" d="m883 439c-1 3-102 227-102 227-6 16-21 25-38 25h-487c-17 0-32-10-38-25l-96-226c-27-6-47-29-47-58v-190c0-34 27-61 61-61h48v-68c0-30 24-54 55-54 30 0 54 24 54 54v68h418v-68c0-30 24-54 55-54 30 0 54 24 54 54v68h44c34 0 61 27 61 61v190c0 27-18 49-42 57z m-599 168h432l63-142h-555l60 142z m-47-345c-33 0-60 26-60 59 0 32 27 59 60 59s59-27 59-59c0-33-27-59-59-59z m531 0c-33 0-59 26-59 59 0 32 26 59 59 59 32 0 59-27 59-59 0-33-27-59-59-59z" horiz-adv-x="1000" />
<glyph glyph-name="dogAlt" unicode="&#xe181;" d="m1107 132l-68 169 0 0c2 11 3 22 3 34 0 57-31 107-77 134l0 0 112 52 0 0c40 22 67 66 63 116-4 59-52 107-111 112-28 2-55-6-77-20-7-5-3-16 6-15 2 0 5 0 7 0 59 0 107-38 107-85 0-26-15-49-38-65l-109-75 0 0h-392l0 0-121 162c-11 15-26 28-43 38l0 0c0 0-15 57-28 78-8 11-15 10-22 2-16-20-35-67-35-67l0 0c-44-8-80-38-97-78l0 0-106-46c-4-2-7-6-6-11 5-26 28-46 55-46 4 0 8 1 12 2l123 31 0 0-71-65c-6-6-1-16 7-14l64 11c14 3 26-6 28-20l28-191c0 0 4-27 10-37l0 0-110-229c-3-7 2-16 10-16h23c8 0 16 4 21 11l113 155 0 0c6-6 25-17 31-19l0 0-93-200c-3-7 2-15 10-15h26c8 0 15 4 20 10l147 184v0c47 44 229 85 293 85 67 0 131-57 131-57l0 0c16-19 26-43 26-70 0-25-8-48-23-66-5-7-1-17 9-17h34c12 0 23 8 26 19 3 13 4 25 4 39 0 25-6 49-16 71l0 0c54-29 88-69 88-114 0-19-7-38-18-55-5-7 0-17 9-17h23c10 0 19 6 24 15 9 20 14 43 14 67 0 44-18 84-46 113l0 0z m-872 467c-14-2-26 10-24 24 2 8 8 15 16 16 15 3 27-10 24-24-1-8-8-14-16-16z" horiz-adv-x="1228" />
<glyph glyph-name="document" unicode="&#xe182;" d="m846 547l0 0 0 1v0h0l-228 227h-464v-850h692l0 622z m-101 1h-127v126l127-126z m-523 159h328v-227h228v-487h-556v714z" horiz-adv-x="1000" />
<glyph glyph-name="metadata" unicode="&#xe183;" d="m152 698v77h78v-77h-78z m0-155v78h78v-78h-78z m0-154v77h78v-77h-78z m0-155v77h78v-77h-78z m0-155v77h78v-77h-78z m0-154v77h78v-77h-78z m155 773v77h77v-77h-77z m0-773v77h77v-77h-77z m154 773v77h78v-77h-78z m0-773v77h78v-77h-78z m155 850l232-232h-232v232z m0-850v77h77v-77h-77z m155 464v77h77v-77h-77z m0-155v77h77v-77h-77z m0-155v77h77v-77h-77z m0-154v77h77v-77h-77z" horiz-adv-x="1000" />
<glyph glyph-name="pointItem" unicode="&#xe184;" d="m925 659v-618h-850v618h850z m-464-309h-308v-77h308v77z m387 232h-695v-155h695v155z m-387-387h-308v-77h308v77z m387 155h-271v-232h271v232z" horiz-adv-x="1000" />
<glyph glyph-name="text" unicode="&#xe185;" d="m858 174h-288l-50-117c-13-29-19-51-19-65 0-12 6-22 16-30 11-9 35-14 70-17v-20h-234v20c31 6 51 13 60 22 19 17 40 53 62 107l262 612h19l259-619c21-50 40-82 57-97 17-15 41-23 71-25v-20h-293v20c59 3 75 22 75 46 0 16-7 42-22 76l-45 107z m-15 41l-126 300-130-300h256z m-312 144l-155 416h-100l-201-536h97l47 136h211l48-136 53 120z m-289 89l74 214c2 8 5 19 7 33h2c2-15 4-26 7-33l74-214h-164z" horiz-adv-x="1218" />
<glyph glyph-name="fieldText" unicode="&#xe186;" d="m1225-75h-1150v850h1150v-850z m-1086 64h1022v722h-1022v-722z m337 201h-56l-28 78h-120l-27-78h-56l115 307h58l114-307z m-97 119l-43 123c-1 4-2 10-4 19h-1c-1-8-2-14-4-19l-42-123h94z m176-88h-1v-31h-49v325h49v-144h1c17 29 42 43 75 43 28 0 49-10 65-29 16-20 24-46 24-79 0-37-9-66-27-88-17-23-41-34-72-34-28 0-50 13-65 37z m-1 88v-28c0-16 5-29 15-40 11-12 24-17 39-17 19 0 33 7 44 22 10 14 16 34 16 60 0 21-5 38-15 50-10 13-23 19-40 19-18 0-32-7-43-19-11-13-16-29-16-47z m365-109c-18-10-39-16-63-16-32 0-59 11-79 31-20 20-30 47-30 79 0 36 11 65 33 87 21 22 50 33 86 33 20 0 38-3 53-10v-46c-15 11-32 17-49 17-21 0-38-7-52-22-13-14-20-32-20-55 0-23 6-41 19-54 13-13 30-20 51-20 18 0 35 6 51 19v-43z" horiz-adv-x="1300" />
<glyph glyph-name="fieldNumber" unicode="&#xe187;" d="m322 514v-324h-53v261c-19-13-40-22-68-29v44c35 11 64 24 99 48h22z m248-324h-204v24c0 61 55 96 99 132 28 23 46 43 46 74 0 33-22 50-53 50-26 0-55-12-80-36v49c27 20 53 29 90 29 58 0 97-30 97-87 0-51-27-79-69-113-35-27-73-52-73-77v-1h147v-44z m32 13v48c21-16 45-24 72-24 21 0 39 4 52 14 12 9 19 23 19 39 0 36-28 54-84 54h-26v41h24c50 0 75 17 75 51 0 31-19 47-58 47-22 0-42-8-61-23v46c22 12 48 18 78 18 29 0 52-7 69-22 17-14 26-32 26-54 0-42-22-69-65-80v-1c23-3 42-11 55-24 14-14 21-31 21-52 0-28-11-51-33-69-22-17-51-26-87-26-32 0-57 6-77 17z m623-278h-1150v850h1150v-850z m-1086 65h1022v721h-1022v-722z" horiz-adv-x="1300" />
<glyph glyph-name="dropdown" unicode="&#xe188;" d="m1161-11h-1022v722h1022v-722z m-1086 786v-850h1150v850h-1150z m985-361l-148-148-147 148h295z" horiz-adv-x="1300" />
<glyph glyph-name="radioButton" unicode="&#xe189;" d="m500 704c195 0 354-159 354-354s-159-354-354-354-354 159-354 354 159 354 354 354m0 71c-235 0-425-190-425-425s190-425 425-425 425 190 425 425-190 425-425 425l0 0z m0-224c-111 0-200-90-200-201s89-200 200-200 201 89 201 200-90 201-201 201z" horiz-adv-x="1000" />
<glyph glyph-name="checkbox" unicode="&#xe18a;" d="m925-75h-850v850h850v-850z m-778 72h706v706h-706v-706z m59 352c-6 6-5 15 0 20l58 54c3 2 6 3 10 3 4 0 7-1 10-4l158-170 272 350c2 3 6 5 11 5 3 0 6-1 9-3l62-48c3-2 5-6 5-10 1-3-1-7-3-10l-349-449-243 262z" horiz-adv-x="1000" />
<glyph glyph-name="story" unicode="&#xe18b;" d="m996 683v-663c0-13-9-25-22-27l-433-68c-2 0-4 0-5 0s-4 0-6 0l-433 68c-13 3-22 14-22 27v663c0 8 4 16 10 21 6 5 15 7 23 6l29-6v-604c0-33 23-62 54-71l325-67c7-2 13-3 20-3s12 1 18 2l326 68c32 9 54 38 54 71v604l30 6c7 1 16-1 22-6 6-5 10-13 10-21z m-433-692l305 83c11 3 20 14 20 26v648c0 8-4 16-11 21-5 4-11 6-17 6-2 0-4 0-7-1l-290-78v-705z m-359 83l304-83v705l-290 78c-3 1-5 1-7 1-6 0-12-2-17-6-7-5-10-13-10-21v-648c0-12 8-23 20-26z" horiz-adv-x="1071" />
<glyph glyph-name="bold" unicode="&#xe18c;" d="m181-75v850h309c95 0 168-17 219-52 51-35 76-84 76-147 0-46-15-86-46-121-31-34-71-58-119-71v-3c61-7 109-29 145-67 36-37 54-82 54-135 0-78-28-140-83-186-56-45-132-68-229-68h-326z m191 709v-202h85c39 0 70 10 93 29 23 19 34 46 34 79 0 63-47 94-140 94h-72z m0-344v-224h104c44 0 79 10 104 31 25 20 38 48 38 84 0 34-13 61-37 80-25 19-60 29-104 29h-105z" horiz-adv-x="1000" />
<glyph glyph-name="italic" unicode="&#xe18d;" d="m487-75c-41 0-73 10-94 31-22 21-32 50-32 89 0 19 2 38 6 57l83 406h137l-77-361c-7-37-11-61-11-72 0-29 16-43 48-43 19 0 36 3 51 9l-21-103c-32-9-62-13-90-13z m-11 775c0-41 36-75 82-75 45 0 81 34 81 75s-36 75-81 75c-46 0-82-34-82-75z" horiz-adv-x="1000" />
<glyph glyph-name="underline" unicode="&#xe18e;" d="m742 407c0-174-83-261-247-261-158 0-236 84-236 251v378h102v-357c0-121 47-182 142-182 90 0 136 59 136 176v363h103v-368z m-1-482v103h-482v-103h482z" horiz-adv-x="1000" />
<glyph glyph-name="quote" unicode="&#xe18f;" d="m529 422c0-216-127-403-310-491-27-14-60-2-74 25l0 0c-13 24-6 55 16 72 82 62 141 154 162 259 7 33-18 64-52 67-74 5-143 49-176 121-42 88-17 190 54 251 13 12 29 22 47 30 105 50 228-3 280-101 34-71 53-150 53-233z m484 233c-52 98-175 151-280 101-18-8-34-18-47-30-72-61-96-163-54-251 33-72 102-116 176-121 34-3 59-34 52-68-21-105-80-196-162-259-22-17-29-47-16-72l0 0c14-26 47-38 74-25 183 89 310 276 310 492-1 83-19 162-53 233z" horiz-adv-x="1140" />
<glyph glyph-name="styleRemove" unicode="&#xe190;" d="m592 347l-159 428h-114l-228-608h110l53 155h239l19-53 80 78z m-312 57l84 243c3 9 6 22 8 38h2c3-18 6-30 8-38l85-243h-187z m455 2c7 7 19 7 26 0l87-86c7-7 7-19 0-26l-276-276c-7-7-19-7-26 0l-86 86c-8 7-8 19 0 26l275 276z m-343-456c49-49 98-11 98-11 8 6 20 17 27 24 7 7 7 19 0 26l-86 86c-7 7-19 8-26 1-7-8-18-20-24-28 0 0-38-49 11-98m445 502c-10-3-12-11-5-18l45-44c7-7 15-5 17 5l15 58c2 10-4 16-14 13l-58-14z" horiz-adv-x="1000" />
<glyph glyph-name="pictureAdd" unicode="&#xe191;" d="m1122 43h-157v-158h-82v158h-158v81h158v158h82v-158h157v-81z m-694 469c-15 0-24-10-26-12l-173-242c-2-3-5-9-1-15 3-7 8-7 11-7h236l91 124-111 141c-2 3-12 11-27 11z m201 0c0 32-26 58-58 58-32 0-58-26-58-58s26-58 58-58c32 0 58 26 58 58z m221-269c3 6 0 13-2 16l-143 183c0 0-10 10-24 10s-20-8-22-10l-149-206h329c5 0 8 0 11 7z m-207-119h-446v529h686v-289h82v371h-850v-692h528v81z" horiz-adv-x="1157" />
<glyph glyph-name="pictureRemove" unicode="&#xe192;" d="m791 331l-95-95h-186l149 206c2 2 8 10 22 10s24-10 24-10l86-111z m-363 181c-15 0-24-10-26-12l-173-242c-2-3-5-9-1-15 3-7 8-7 11-7h236l91 124-111 141c-2 3-12 11-27 11z m201 0c0 32-26 58-58 58s-58-26-58-58 26-58 58-58 58 26 58 58z m138-428l-41 40h-529v529h686v-372l41-41 41 42v453h-850v-692h611l41 41z m326-112l-112 112 112 111-58 58-111-112-112 112-58-58 112-111-112-112 58-58 112 112 111-112 58 58z" horiz-adv-x="1128" />
<glyph glyph-name="desktop" unicode="&#xe193;" d="m763 574v-310h-526v310h526m22 62h-569c-23 0-41-18-41-40v-354c0-23 18-41 41-41h569c22 0 40 18 40 41v354c0 22-18 40-40 40l0 0z m40-472h-650l-100-100h850l-100 100z" horiz-adv-x="1000" />
<glyph glyph-name="tablet" unicode="&#xe194;" d="m895 635h-770c-22 0-40-18-40-41v-488c0-23 18-41 40-41h770c22 0 40 18 40 41v489c0 22-18 40-40 40z m-41-489h-689v408h689v-408z m38 184c-11 0-20 9-20 20s9 20 20 20c11 0 20-9 20-20s-9-20-20-20z" horiz-adv-x="1000" />
<glyph glyph-name="mobile" unicode="&#xe195;" d="m710 795h-370c-33 0-60-27-60-60v-730c0-33 27-60 60-60h370c33 0 60 27 60 60v730c0 33-27 60-60 60z m-265-71c0 11 9 20 20 20h120c11 0 20-9 20-20v0c0-11-9-20-20-20h-120c-11 0-20 9-20 20l0 0z m80-743c-19 0-35 16-35 35s16 35 35 35c19 0 35-16 35-35s-15-35-35-35z m156 104h-312v570h312v-570z" horiz-adv-x="1000" />
<glyph glyph-name="table" unicode="&#xe196;" d="m81 775v-850h838v850h-838z m772-353h-193v152h193v-152z m-450-217v153h193v-152h-193z m193-63v-153h-193v153h193z m-257 63h-193v153h193v-153z m64 217v152h193v-152h-193z m257-64h193v-152h-193v152z m-321 216v-152h-193v152h193z m-193-432h193v-153h-193v153z m514-153v153h193v-153h-193z" horiz-adv-x="1000" />
<glyph glyph-name="hide" unicode="&#xe197;" d="m462 145l193 193c3-12 4-25 4-38 0-88-71-159-159-159-13 0-26 1-38 4z m-305 150c68 119 196 199 343 199 25 0 49-2 72-7l55 55c-41 11-83 17-127 17-163 0-307-82-392-207-12-18-23-37-33-57l82 0z m768 0c-10 20-21 39-33 57-30 44-67 82-110 114l-48-49c44-32 82-74 110-122l81 0z m-425 164c-88 0-159-71-159-159 0-14 2-26 5-39l193 193c-13 3-26 5-39 5z m332 126l-48 48-519-519 48-48 519 519z" horiz-adv-x="1000" />
<glyph glyph-name="shield" unicode="&#xe198;" d="m500 775c-22 0-44-9-64-26-71-61-153-97-244-114-31-6-54-24-56-62-14-218 37-412 202-567 57-54 110-81 162-81 53 0 105 27 162 81 165 155 216 349 202 567-2 38-25 56-56 62-91 17-172 53-244 114-20 17-42 26-64 26z" horiz-adv-x="1000" />
<glyph glyph-name="header" unicode="&#xe19a;" d="m695-45h-128v335h-364v-335h-128v772h128v-324h364v324h128v-772z m380 790v-790h-125v637c-22-16-47-30-73-41-26-12-56-22-89-30v106c21 7 41 14 60 22 20 7 39 16 58 25 18 9 38 20 57 31 19 12 39 25 59 40h53z" horiz-adv-x="1150" />
<glyph glyph-name="paint" unicode="&#xe19b;" d="m212 745v-457c0-30 19-57 47-68l122-46c28-10 47-37 47-68v-139c0-40 32-72 72-72l0 0c40 0 72 32 72 72v140c0 30 19 57 47 67l122 46c28 11 47 38 47 68v457h-576z m288-802c-13 0-24 11-24 24s11 24 24 24c13 0 24-10 24-24s-11-24-24-24z m-224 363v201c0 18 15 32 32 32 18 0 32-14 32-32v-96c0-18 15-32 32-32 18 0 32 14 32 32v64c0 18 15 32 32 32 18 0 32-14 32-32 0-18 15-32 32-32 18 0 32 14 32 32v32c0 18 15 32 32 32 18 0 32-14 32-32v-96c0-17 15-32 32-32 18 0 32 15 32 32v64c0 18 15 32 32 32 17 0 31-13 32-29v-172h-448z" horiz-adv-x="1000" />
<glyph glyph-name="support" unicode="&#xe19c;" d="m705 202c-15 20-43 25-63 10l-68-49c-23-17-57-11-73 12l-180 249c-17 24-12 57 12 74l68 49c20 15 24 43 10 63l-106 147c-15 20-43 24-62 10l-35-25c-116-84-117-247-43-385 0 0 18-51 89-149 70-97 134-159 134-159 107-120 262-165 378-81l35 25c20 14 24 42 10 62l-106 147z m-130 477c23 57 77 93 138 96 60 2 127-16 158-71 30-55 12-122-34-160-23-19-52-33-65-61-7-15-6-30-6-46h-88v30c2 27 9 52 27 74 18 22 45 36 63 58 38 46 2 112-57 98-25-6-42-27-48-50-1-4-5-33-4-33-1 0-95 0-95 0 0 22 4 44 11 65z m208-339c0-32-26-59-59-59-33 0-59 27-59 59 0 33 26 59 59 59 33 0 59-26 59-59z" horiz-adv-x="1000" />
<glyph glyph-name="settings" unicode="&#xe19d;" d="m851 437v-512h-110v512h110z m-110 338v-97h110v97h-110z m-293-755v-95h110v95h-110z m0 755v-513h110v513h-110z m-294-542v-308h110v308h-110z m0 542v-300h110v300h-110z m125-482h-143c-34 0-61 28-61 61v0c0 34 27 61 61 61h143c34 0 61-27 61-61v0c0-33-27-61-61-61z m585 203h-143c-34 0-61 27-61 61v0c0 34 27 61 61 61h143c34 0 61-27 61-61v0c0-34-27-61-61-61z m-292-416h-144c-33 0-60 27-60 61v0c0 34 27 61 60 61h144c33 0 60-27 60-61v0c1-34-27-61-60-61z" horiz-adv-x="1000" />
<glyph glyph-name="creditCard" unicode="&#xe19e;" d="m75 535v74c0 23 19 41 42 41h766c23 0 42-18 42-41v-74h-850z m850-132v-312c0-23-19-41-42-41h-766c-23 0-42 18-42 41v312h850z m-70-70h-387v-84h387v84z" horiz-adv-x="1000" />
<glyph glyph-name="reload" unicode="&#xe19f;" d="m737 291c0-127-99-230-225-237-139-7-254 108-249 247 5 123 104 222 227 227l-124-124 133 0 186 186-185 185-134 0 118-118c-217-10-385-208-344-434 27-150 145-267 295-292 231-40 431 137 431 360l-129 0z" horiz-adv-x="1000" />
<glyph glyph-name="peopleSecurity" unicode="&#xe200;" d="m695 551c-3 13-5 25-6 37 0 27 3 51 9 71 7 21 16 39 28 56 15 20 33 35 53 45 20 10 41 15 62 15 26 0 50-7 73-21 22-13 40-34 52-62 11-25 17-51 17-78 0-40-14-78-42-114-14-19-30-32-50-42-20-9-41-14-62-14-10 0-20 1-30 3-10 3-19 6-29 11-14 7-26 16-36 26-10 10-18 20-25 32-6 11-11 23-14 35z m-386-282c20-9 41-14 61-14 21 0 41 5 59 14 14 8 27 16 37 26 10 10 18 21 24 32 7 12 11 24 15 36 3 12 5 25 6 37 0 27-3 51-9 71-7 20-16 38-29 55-15 21-33 36-53 46-20 10-41 15-62 15-25 0-49-7-72-21-22-14-40-34-52-61-12-27-18-53-18-80 0-39 14-77 42-114 14-18 31-32 51-42z m338-137c-5 28-15 52-30 70-15 19-37 33-64 42-6 2-12 4-18 5-5 2-11 3-16 3-8 0-16-2-23-5-8-3-16-8-24-15-14-12-29-22-46-29-17-7-35-10-54-10-8 0-16 1-24 2-17 3-33 9-47 16-14 8-27 17-40 28-5 5-10 8-15 11-5 2-11 4-18 4h-4c-32-4-59-15-81-34-22-19-37-44-44-75-9-36-15-72-19-109-3-37-7-74-10-111h603c-3 35-7 69-11 103-4 35-9 69-15 104z m88 51c0 25 13 48 33 61v25c0 43 15 82 39 113-12 2-23 5-34 9-16 7-31 17-45 30-15 12-30 18-46 18-10 0-22-2-35-7-28-9-49-23-64-41-16-18-26-42-31-71-1-3-1-7-2-10 0-4-1-7-1-10 7-2 14-4 21-6 37-13 66-32 88-57 21-26 35-58 42-96 1-5 1-9 2-14 0-4 1-9 2-14h31v70z m395 0v-231c0-15-12-27-27-27h-296c-15 0-27 12-27 27v231c0 15 12 27 27 27h6v59c0 79 64 142 142 142 78 0 141-64 141-142v-59h7c15 0 27-12 27-27z m-252 86v-59h154v59c0 43-35 77-77 77-42 0-77-34-77-77z m96-194c10 6 17 18 17 31 0 9-3 18-9 24-7 8-16 12-27 12-11 0-20-4-27-12-6-6-9-15-9-24 0-13 7-25 17-31l-17-74h72l-17 74z" horiz-adv-x="1200" />
<glyph glyph-name="fieldTextBox" unicode="&#xe203;" d="m1225-75h-1150v850h1150v-850z m-1086 64h1022v722h-1022v-722z m298 392h-45l-23 64h-98l-22-64h-45l94 250h46l93-250z m-79 97l-34 100c-1 3-3 8-4 16h0c-1-7-3-12-4-16l-34-100h76z m143-71h0v-26h-41v264h41v-117h0c14 24 34 36 61 36 22 0 40-8 53-24 12-16 19-38 19-64 0-30-8-54-22-72-14-18-34-27-58-27-23 0-41 10-53 30z m-1 71v-22c0-13 4-24 13-33 8-9 18-14 31-14 15 0 27 6 35 18 9 11 13 27 13 48 0 18-4 32-12 41-8 10-18 15-32 15-14 0-26-5-35-15-8-10-13-23-13-38z m296-89c-15-8-31-12-51-12-26 0-48 8-64 25-16 16-24 38-24 64 0 30 8 53 26 71 17 18 41 27 70 27 16 0 30-3 43-9v-37c-12 9-26 13-40 13-17 0-31-5-42-17-10-11-16-26-16-45 0-19 5-33 16-44 10-10 24-16 41-16 14 0 28 5 41 16v-36z m-407-330h-40v31h-1c-13-23-33-35-60-35-22 0-39 8-52 24-13 16-20 38-20 65 0 30 7 53 22 71 14 18 34 27 58 27 24 0 41-10 52-29h1v110h40v-264z m-39 82v23c0 13-4 23-13 32-8 9-18 13-31 13-15 0-27-5-36-16-8-12-13-27-13-47 0-18 4-33 13-43 8-11 19-16 33-16 14 0 25 5 34 15 8 11 13 23 13 39z m235-4h-121c0-16 5-29 15-38 10-9 23-13 40-13 19 0 36 6 52 17v-33c-16-10-38-15-64-15-26 0-47 8-62 24-15 17-22 39-22 69 0 27 8 50 25 67 16 18 36 27 61 27 24 0 43-8 56-24 13-16 20-37 20-65v-16z m-39 29c0 14-3 26-10 34-7 8-16 12-28 12-12 0-21-4-29-13-9-8-13-19-15-33h82z m172 124c-6 3-12 5-19 5-20 0-29-11-29-33v-25h41v-31h-41v-147h-41v147h-30v32h30v28c0 19 7 34 19 45 12 11 28 16 46 16 10 0 18-1 24-3v-34z" horiz-adv-x="1300" />
<glyph glyph-name="multiChoice" unicode="&#xe204;" d="m215 542c-2 2-2 6 0 8l24 22c1 1 2 2 4 2 2 0 3-1 4-2l65-71 113 145c1 1 3 2 4 2 2 0 3 0 4-1l26-20c1-1 2-2 2-4 0-1 0-3-1-4l-145-186-100 109z m0-387c-2 2-2 6 0 8l24 22c1 1 2 2 4 2 2 0 3-1 4-2l65-70 113 144c1 1 2 2 4 2 2 0 3 0 4-1l25-20c2-1 2-2 3-4 0-1-1-3-2-4l-144-186-100 109z m-140 620v-850h851v850h-851z m787-64v-329h-723v329h723z m-723-722v329h723v-329h-723z" horiz-adv-x="1000" />
<glyph glyph-name="fieldMail" unicode="&#xe205;" d="m926-75h-852v850h852v-850z m-787 64h722v722h-722v-722z m408 276h-2c-16-41-43-62-83-62-30 0-54 11-72 33-19 21-28 51-28 90 0 49 13 90 38 121 26 31 56 46 92 46 32 0 52-12 61-38h1l3 33h73c-9-93-14-153-14-181 0-31 8-46 25-46 17 0 31 12 42 35 12 23 17 53 17 90 0 50-16 92-48 124-32 33-78 49-135 49-62 0-114-22-155-65-41-43-62-96-62-158 0-60 19-108 55-143 36-34 86-52 150-52 49 0 94 10 134 28v-62c-37-15-85-23-143-23-80 0-145 23-195 68-50 46-75 108-75 185 0 79 26 145 80 199 53 54 122 81 207 81 78 0 141-21 189-63 48-42 73-97 73-165 0-56-15-101-45-135-29-34-66-51-109-51-22 0-39 6-53 17-13 12-20 27-21 45z m-44 172c-19 0-35-11-47-33-13-23-19-48-19-78 0-20 5-37 13-48 8-12 19-18 32-18 21 0 37 11 48 33 12 22 18 51 18 88 0 17-4 31-12 41-8 10-19 15-33 15z" horiz-adv-x="1000" />
<glyph glyph-name="contactForm" unicode="&#xe206;" d="m860 711v-122h-721v122h721m65 65h-851v-252h851v252l0 0z m-65-382v-122h-721v122h721m65 65h-851v-252h851v252l0 0z m-424-317h-427v-217h427v217z" horiz-adv-x="1000" />
<glyph glyph-name="circleHalfFilled" unicode="&#xe207;" d="m500 775c-235 0-425-190-425-425 0-235 190-425 425-425s425 190 425 425c0 235-190 425-425 425z m-354-425c0 195 159 354 354 354s354-159 354-354h-708z" horiz-adv-x="1000" />
<glyph glyph-name="documentPDF" unicode="&#xe208;" d="m846 547l0 0 0 1v0h0l-228 227h-464v-850h692l0 622z m-101 1h-127v126l127-126z m-523 159h328v-227h228v-487h-556v714z m83-592v-72h-33v198h60c23 0 41-5 53-16 13-10 19-25 19-45 0-19-6-34-19-47-14-12-31-18-54-18h-26z m0 99v-72h21c14 0 25 3 33 10 7 6 11 15 11 27 0 23-14 35-41 35h-24z m125-171v198h57c73 0 110-32 110-97 0-30-10-55-30-73-21-19-48-28-82-28h-55z m33 170v-142h26c23 0 41 6 54 19 13 13 19 30 19 54 0 46-24 69-72 69h-27z m267 0h-74v-59h68v-28h-68v-83h-33v198h107v-28z" horiz-adv-x="1000" />
<glyph glyph-name="bookmark" unicode="&#xe209;" d="m756-75l-256 256-256-256v850h512v-850z" horiz-adv-x="1000" />
<glyph glyph-name="circleUnfilled" unicode="&#xe20b;" d="m500 775c-235 0-425-190-425-425s190-425 425-425 425 190 425 425-190 425-425 425z m0-779c-195 0-354 159-354 354s159 354 354 354 354-159 354-354-159-354-354-354z" horiz-adv-x="1000" />
<glyph glyph-name="circleFilled" unicode="&#xe20c;" d="m500 775c-235 0-425-190-425-425s190-425 425-425 425 190 425 425-190 425-425 425l0 0z" horiz-adv-x="1000" />
<glyph glyph-name="textBox" unicode="&#xe20e;" d="m924 635v140h-140v-35h-569v35h-140v-140h34v-570h-34v-140h140v37h569v-37h140v140h-38v570h38z m-108-570h-32v-33h-569v33h-36v570h36v35h569v-35h32v-570z m-360 519l-179-477h87l41 121h187l43-121h87l-177 477h-89z m-31-291l66 190c2 7 5 17 7 30h1c2-14 4-24 6-30l66-190h-146z" horiz-adv-x="1000" />
<glyph glyph-name="drop" unicode="&#xe20f;" d="m743 399l-243 376-243-376c-36-49-57-109-57-174 0-166 134-300 300-300s300 134 300 300c0 65-21 125-57 174z" horiz-adv-x="1000" />
<glyph glyph-name="sun" unicode="&#xe210;" d="m801 651l-220-105-81 229-81-229-219 105 104-220-229-81 229-81-104-219 219 104 81-229 81 229 220-104-105 219 229 81-229 81 105 220z m-220-497c-108-45-232 6-277 115-45 108 6 233 115 277s232-6 277-115c45-108-6-232-115-277z m-81 365c93 0 169-76 169-169s-76-169-169-169-169 76-169 169 76 169 169 169z" horiz-adv-x="1000" />
<glyph glyph-name="lifesaver" unicode="&#xe211;" d="m663 743c-217 89-466-13-556-230-89-217 14-466 230-556 217-90 466 13 556 230 90 217-13 466-230 556z m-276-346c26 62 97 92 160 66s92-97 66-160-97-92-160-66-92 97-66 160z m248 280l-61-148c-49 20-102 19-148 0l-61 148c83 34 180 37 270 0z m-462-192l0 0 148-61c-20-49-19-102 0-148l-148-61c-34 83-37 180 0 270z m192-462l61 148c49-20 102-19 148 0l61-148c-83-34-180-37-270 0z m462 192l0 0-148 61c20 49 19 102 0 148l148 61c34-83 37-180 0-270z" horiz-adv-x="1000" />
<glyph glyph-name="lifesaverLock" unicode="&#xe212;" d="m530-48v46c-55-5-111 3-165 25l61 148c34-14 70-17 104-12v24c0 25 13 48 33 61v1c-32-19-72-23-110-8-62 26-92 97-66 160s97 92 160 66c31-13 54-38 66-67 34 37 83 60 137 60 2 0 4 0 5 0l72 29c7-18 13-36 17-55 37-22 66-56 81-96 6 172-94 339-262 409-217 89-466-14-556-230-89-217 14-466 230-556 65-27 132-36 198-31-4 8-5 17-5 26z m105 725l-61-148c-49 20-102 19-148 0l-61 148c83 34 180 37 270 0z m-314-401l-147-61c-35 83-38 180-1 270l0 0 148-61c-20-49-19-102 0-148z m577-66h-7v59c0 79-63 142-141 142-78 0-142-64-142-142v-59h-6c-15 0-27-12-27-27v-231c0-15 12-27 27-27h296c15 0 27 12 27 27v231c0 15-12 27-27 27z m-112-209h-72l17 74c-10 6-17 18-17 31 0 9 3 18 9 24 7 8 16 12 27 12 11 0 20-4 27-12 6-6 9-15 9-24 0-13-7-25-17-31l17-74z m41 209h-154v59c0 43 35 77 77 77 42 0 77-34 77-77v-59z" horiz-adv-x="1000" />
<glyph glyph-name="mailUnread" unicode="&#xe213;" d="m241 157h-147c-10 0-18 8-19 17 0 0 0 0 0 0v361l306 234c6 4 13 6 20 6 6 0 12-2 18-6l294-234v-112h-155l86 68-250 198-250-198 107-84c-7-8-10-18-10-28v-222z m379-79c-3-3-5-5-8-5-3-1-7-2-10-2-4 0-7 1-10 2-3 0-6 2-8 5l-296 209v-331c0-8 3-15 9-22 6-6 13-9 20-9h578c9 0 16 3 21 9 6 7 9 14 9 22v338l-305-216z m-18 65l313 223c-2 3-5 5-9 7-3 2-7 3-11 3h-578c-9 0-17-5-23-13l308-220z" horiz-adv-x="1000" />
<glyph glyph-name="mailRead" unicode="&#xe214;" d="m758 376h137c4 0 7-1 11-3 4-2 7-4 9-7l-157-112v122z m0-201v-2c0-33-29-61-64-61h-25l-49-34c-3-3-5-5-8-5-3-1-7-2-10-2-4 0-7 1-10 2-3 0-6 2-8 5l-50 34h-246v-156c0-8 3-15 9-22 6-6 13-9 20-9h578c9 0 16 3 21 9s9 14 9 22v338l-167-119z m-45 360v-362c0-9-10-16-19-16h-600c-10 0-18 8-19 17 0 0 0 0 0 0v361l306 234c6 4 13 6 20 6 6 0 12-2 18-6l294-234z m-69-44l-250 198-250-198 250-198 250 198z" horiz-adv-x="1000" />
<glyph glyph-name="inboxCheck" unicode="&#xe215;" d="m925 234v-172c0-18-14-33-32-33h-785c-17 0-33 16-33 32v173l182 319c5 8 13 13 22 13h309l-67-86h-58l-42 45c-11 12-26 19-41 19-15 0-28-6-39-15l-41-38c-15-14-20-35-16-53l-95-207h152c10 0 19-5 24-13l40-74h191l40 74c5 8 14 13 25 13h151l-100 219 52 68 161-284z m-422 24l245 316c2 2 3 4 2 7 0 3-1 5-3 7l-44 34c-2 1-4 2-6 2-3 0-6-2-8-4l-191-246-111 120c-2 2-5 3-8 3-2 0-4-1-6-3l-41-38c-4-3-4-10 0-14l171-184z" horiz-adv-x="1000" />
<glyph glyph-name="folderSearch" unicode="&#xe216;" d="m663 353c0-60-48-109-108-109-61 0-109 49-109 109 0 60 48 109 109 109 60 0 108-49 108-109z m262 298v-629h-850v543c0 7 2 13 7 17 5 5 10 7 17 7h427l28 62c3 6 7 13 13 19 5 5 12 8 20 8h306c7 0 14-2 20-8 7-5 10-12 12-19z m-213-298c0 87-71 157-157 157-87 0-158-70-158-157 0-28 8-55 21-78l-118-119c-16-15-16-41 0-57 8-7 18-11 28-11 10 0 21 4 29 12l117 118c23-14 51-23 80-23 88 0 158 71 158 158z" horiz-adv-x="1000" />
<glyph glyph-name="collapse" unicode="&#xe217;" d="m925 653h-850v122h850v-122z m0-121h-850v-121h850v121z m0-243h-850v-121h850v121z m0-243h-850v-121h850v121z" horiz-adv-x="1000" />
<glyph glyph-name="expand" unicode="&#xe218;" d="m925 411h-850v364h850v-364z m0-122h-850v-364h850v364z" horiz-adv-x="1000" />
<glyph glyph-name="ascending" unicode="&#xe219;" d="m492 410h-89l-26 81h-130l-26-81h-89l133 365h97l130-365z m-134 144l-39 123c-4 10-6 21-7 33h-2c-1-11-3-21-6-32l-40-124h94z m100-311l-182-251h182v-66h-292v47l186 249h-173v66h279v-45z m204-167v699h84v-699l122 129v-106l-164-173-164 173v107l122-130z" horiz-adv-x="1000" />
<glyph glyph-name="descending" unicode="&#xe21a;" d="m492-75h-89l-26 81h-130l-26-81h-89l133 365h97l130-365z m-134 144l-39 123c-4 10-6 21-7 33h-2c-1-11-3-21-6-32l-40-124h94z m100 660l-182-250h182v-67h-292v47l186 250h-173v66h279v-46z m204-653v699h84v-699l122 129v-106l-164-173-164 173v107l122-130z" horiz-adv-x="1000" />
<glyph glyph-name="filterClear" unicode="&#xe21b;" d="m465-75c-23 0-42 19-42 42v326c0 11-4 21-11 29l-325 347c-7 8-11 18-11 29v35c0 23 18 42 42 42h765c23 0 42-19 42-42v-35c0-11-4-21-12-29l-325-347c-7-8-11-18-11-29v-326c0-23-19-42-42-42h-70z m409 299l-99-98-98 98-51-51 98-98-98-99 51-51 98 98 98-98 51 51-98 98 98 99-50 51" horiz-adv-x="1000" />
<glyph glyph-name="checkboxEmpty" unicode="&#xe21c;" d="m925-75h-850v850h850v-850z m-778 72h706v706h-706v-706z" horiz-adv-x="1000" />
<glyph glyph-name="checkboxMixed" unicode="&#xe21d;" d="m712 562h-424v-424h424v424z" horiz-adv-x="1000" />
<glyph glyph-name="boards" unicode="&#xe21e;" d="m814 132v591h-473v52h524v-643h-51z m-52-104v644h-524v-52h472v-592h52z m-627-103h524v644h-524v-644z" horiz-adv-x="1000" />
<glyph glyph-name="checkboxCheck" unicode="&#xe21f;" d="m206 349c-6 6-5 15 0 20l58 54c3 2 6 3 10 3 4 0 7-1 10-4l158-170 272 350c2 3 6 5 11 5 3 0 6-1 9-3l62-48c3-2 5-6 5-10 1-3-1-7-3-10l-349-449-243 262z" horiz-adv-x="1000" />
<glyph glyph-name="frowny" unicode="&#xe220;" d="m500 775c-235 0-425-190-425-425 0-235 190-425 425-425 235 0 425 190 425 425 0 235-190 425-425 425z m197-212c36 0 64-38 64-86 0-48-28-87-64-87-35 0-63 39-63 87 0 48 28 86 63 86z m-379 0c36 0 64-38 64-86 0-48-28-87-64-87-35 0-63 39-63 87 0 48 28 86 63 86z m193-274c172 0 219-193 219-193s-89 118-219 118-219-118-219-118 47 193 219 193z" horiz-adv-x="1000" />
<glyph glyph-name="lightBulb" unicode="&#xe221;" d="m596 92h-187c-16 0-29 13-29 29v0c0 15 13 28 29 28h187c16 0 29-13 29-28v0c0-16-13-29-29-29z m29-55l0 0c0 16-13 29-29 29h-187c-16 0-29-13-29-29v0c0-16 13-29 29-29h187c16 0 29 13 29 29z m-61-83l0 0c0 16-13 29-29 29h-66c-15 0-28-13-28-29v0c0-16 13-29 28-29h66c16 0 29 13 29 29z m193 564c0-181-119-191-135-315-2-16-15-28-30-28h-184c-16 0-29 12-31 28-13 109-108 130-130 257-26 151 76 300 229 314 153 14 281-106 281-256z m-286 158c-5 13-18 19-31 15-65-23-112-79-123-147-2-13 7-26 20-28 1 0 3 0 4 0 12 0 22 8 24 20 8 51 43 92 91 109 12 4 19 18 15 31z" horiz-adv-x="1000" />
<glyph glyph-name="globe" unicode="&#xe222;" d="m500 775c-176 0-338-113-399-279-61-167-9-360 128-474 138-113 338-128 491-36 152 92 232 275 197 449-40 196-218 340-417 340z m206-535c9 68 10 138 2 207h137c19-67 18-141-4-207h-135z m-166-231c-87-73-151 106-165 165h250c-14-58-38-125-85-165-14-11 18 16 0 0z m-179 231c-10 68-10 139-1 207h281c8-68 8-139-2-207h-278z m-202 0c-22 66-23 140-4 207h137c-8-69-7-139 2-207h-135z m301 451c91 76 155-119 169-178h-258c15 62 39 135 89 178 14 11-18-16 0 0z m293-88c27-26 49-57 66-90h-122c-14 67-36 125-64 170 45-18 86-45 120-80 27-26-33 33 0 0z m-506 0c34 35 75 62 121 80-29-44-51-103-65-170h-122c17 33 39 64 66 90 33 33-27-26 0 0z m0-506c-23 23-43 48-59 76h118c14-61 35-114 62-156-46 18-87 45-121 80-23 23 33-33 0 0z m506 0c-34-35-75-62-120-80 26 42 47 95 61 156h118c-16-28-36-53-59-76-33-33 23 23 0 0z" horiz-adv-x="1000" />
<glyph glyph-name="deviceWipe" unicode="&#xe223;" d="m504 56l121 120v545c0 30-24 54-54 54h-331c-30 0-54-24-54-54v-653c0-30 24-54 54-54h248c-1 15 5 30 16 42z m-170 656c0 9 8 17 18 17h107c10 0 18-8 18-17v0c0-10-8-18-18-18h-107c-10 0-18 8-18 18l0 0z m-94-62h331v-511h-331v511z m165-604c-17 0-31 14-31 32 0 17 14 31 31 31 18 0 32-14 32-31 0-18-14-32-32-32z m274-61l128 129c10 10 10 26 0 36l-65 65c-10 10-27 10-37 0l-128-128c-10-10-10-27 0-37l65-65c10-10 26-10 37 0z m-55-17l-65 65c-6 6-11 15-13 23l-22-22c-10-10-10-26 0-37l65-64c10-11 26-11 37 0l22 22c-9 2-17 6-24 13z" horiz-adv-x="1000" />
<glyph glyph-name="listCheck" unicode="&#xe226;" d="m925 632c0 23-18 40-40 40h-468c-22 0-40-17-40-40 0-22 18-40 40-40h468c22 0 40 18 40 40z m-846 2c-5 6-5 14 0 19l22 21c3 2 6 3 10 3 3 0 7-1 10-4l52-57 96 124c3 3 7 5 11 5 3 0 6-1 9-3l23-18c3-2 5-5 5-9 0-4-1-7-3-10l-137-177-98 106z m845-284c0 22-18 40-40 40h-468c-22 0-40-18-40-40 0-22 18-40 40-40h468c22 0 40 18 40 40z m-846-2c-5 6-5 15 0 20l22 20c3 2 6 4 9 4 4 0 8-2 11-5l52-56 96 123c3 4 7 6 11 6 3 0 6-1 8-3l24-18c3-3 5-6 5-10 0-3-1-7-3-10l-137-176-98 105z m847-295c0 23-18 40-40 40h-468c-22 0-40-17-40-40 0-22 18-40 40-40h468c22 0 40 18 40 40z m-846 8c-5 6-5 14 0 19l22 21c3 2 6 3 10 3 3 0 7-1 10-4l52-57 96 124c3 3 7 5 11 5 3 0 6-1 9-3l23-18c3-2 5-5 5-9 1-4 0-7-3-10l-137-177-98 106z" horiz-adv-x="1000" />
<glyph glyph-name="listGroup" unicode="&#xe227;" d="m145 775c-39 0-70-31-70-70s31-70 70-70c39 0 70 31 70 70s-31 70-70 70z m780-70c0 28-23 52-52 52h-543c-29 0-52-24-52-52s23-52 52-52h543c29 0 52 23 52 52z m0-211c0 29-23 52-52 52h-543c-29 0-52-23-52-52 0-28 23-51 52-51h543c29-1 52 23 52 51z m-780-237c-39 0-70-31-70-70s31-70 70-70c39 0 70 31 70 70s-31 70-70 70z m780-70c0 29-23 52-52 52h-543c-29 0-52-23-52-52s23-52 52-52h543c29 0 52 24 52 52z m0-210c0 28-23 52-52 52h-543c-29 0-52-24-52-52s23-52 52-52h543c29 0 52 23 52 52z" horiz-adv-x="1000" />
<glyph glyph-name="timeline" unicode="&#xe228;" d="m119 197v436h-44v61h149v-61h-44v-113h247v113h-44v61h148v-61h-44v-113h247v113h-44v61h149v-61h-44v-234l-61 60v1h-554v-202h353l-61-61h0-353z m615 191l-191-191 191-190 191 190-191 191" horiz-adv-x="1000" />
<glyph glyph-name="fontIncrease" unicode="&#xe229;" d="m714 7h-124l-62 175h-269l-60-175h-124l257 686h128l254-686z m-216 268l-95 273c-3 9-6 23-9 43h-2c-3-18-6-33-10-43l-94-274h210z m427 177h-260l130 131 130-131z" horiz-adv-x="1000" />
<glyph glyph-name="fontDecrease" unicode="&#xe22a;" d="m684 7h-104l-51 146h-225l-49-146h-104l214 571h107l212-571z m-180 223l-79 228c-3 7-5 19-8 36h-2c-2-16-5-28-8-36l-78-228h175z m84 343h261l-131-131-130 131z" horiz-adv-x="1000" />
<glyph glyph-name="fontColor" unicode="&#xe22b;" d="m626 343h87l-161 432h-159l-318-850h154l74 216h323v202z m-170 252c4 13 8 31 12 54h2c4-25 8-43 12-54l118-339h-261l117 339z m221-432v129h248v-129h-248z m248-44v-24c0-13-8-25-20-30l-53-19c-12-5-20-17-20-30v-60c0-17-14-31-31-31s-31 14-31 31v60c0 13-8 25-20 30l-53 19c-12 5-20 17-20 30v24h248z" horiz-adv-x="1000" />
<glyph glyph-name="mailCheck" unicode="&#xe22c;" d="m415 412l-333 237c7 10 15 14 25 14h625c4 0 8-1 12-3 3-2 7-4 9-7l-338-241z m68-185l40 37c10 9 24 15 37 15 16 0 30-7 41-18l73-79 90 116v277l-349-248-340 240v-357c0-9 3-17 10-23 7-7 14-11 22-11h360c-4 18 2 38 16 51z m198-228l241 310c2 2 3 4 2 7 0 3-1 5-3 6l-43 34c-2 1-4 2-6 2-3 0-6-2-8-4l-188-241-109 117c-1 2-4 3-7 3-2 0-5-1-6-2l-40-37c-4-4-4-10-1-14l168-181z" horiz-adv-x="1000" />
<glyph glyph-name="mailDown" unicode="&#xe22d;" d="m415 412l-333 237c7 10 15 14 25 14h625c4 0 8-1 12-3 3-2 7-4 9-7l-338-241z m177-65l107-114v189h65v153l-349-248-340 240v-357c0-9 3-17 10-23 7-7 14-11 22-11h485v171z m152-228l-107 115v-94l144-153 144 153v93l-107-114v258h-74v-258z" horiz-adv-x="1000" />
<glyph glyph-name="listCheckbox" unicode="&#xe22e;" d="m288 735v-173h-173v173h173m40 40h-253v-253h253v253l0 0z m-40-338v-174h-173v174h173m40 40h-253v-254h253v254l0 0z m-40-339v-173h-173v173h173m40 40h-253v-253h253v253l0 0z m-193-127c-3 3-2 8 1 11l12 11c1 2 3 3 5 3 2 0 4-1 6-3l30-32 54 70c1 2 3 3 6 3 1 0 3-1 4-2l14-10c1-1 2-3 3-5 0-2-1-4-2-6l-77-99-56 59z m790 598c0 22-18 40-40 40h-468c-22 0-40-18-40-40 0-22 18-40 40-40h468c22 0 40 18 40 40z m-1-299c0 22-18 40-40 40h-468c-22 0-40-18-40-40 0-22 18-40 40-40h468c22 0 40 18 40 40z m1-299c0 22-18 40-40 40h-468c-22 0-40-18-40-40 0-22 18-40 40-40h468c22 0 40 18 40 40z" horiz-adv-x="1000" />
</font>
</defs>
</svg>
